G04 #@! TF.FileFunction,Soldermask,Bot*
%FSLAX46Y46*%
G04 Gerber Fmt 4.6, Leading zero omitted, Abs format (unit mm)*
G04 Created by KiCad (PCBNEW (2015-01-16 BZR 5376)-product) date 01-Oct-16 1:27:22 PM*
%MOMM*%
G01*
G04 APERTURE LIST*
%ADD10C,0.150000*%
%ADD11C,0.100000*%
%ADD12R,2.200000X2.500000*%
%ADD13C,3.000000*%
%ADD14O,1.727200X2.032000*%
%ADD15O,2.032000X1.727200*%
%ADD16R,1.727200X1.727200*%
%ADD17O,1.727200X1.727200*%
G04 APERTURE END LIST*
D10*
D11*
X69850000Y-103505000D02*
X68580000Y-103505000D01*
X88900000Y-103505000D02*
X87630000Y-103505000D01*
X86995000Y-104140000D02*
X87630000Y-103505000D01*
X70485000Y-104140000D02*
X86995000Y-104140000D01*
X69850000Y-103505000D02*
X70485000Y-104140000D01*
X82296000Y-41910000D02*
X82550000Y-41910000D01*
X75184000Y-41910000D02*
X74930000Y-41910000D01*
X85090000Y-41910000D02*
X82550000Y-41910000D01*
X85725000Y-41275000D02*
X85090000Y-41910000D01*
X91440000Y-41275000D02*
X85725000Y-41275000D01*
X91440000Y-41910000D02*
X91440000Y-41275000D01*
X72390000Y-41910000D02*
X74930000Y-41910000D01*
X71755000Y-41275000D02*
X72390000Y-41910000D01*
X66040000Y-41275000D02*
X71755000Y-41275000D01*
X66040000Y-41910000D02*
X66040000Y-41275000D01*
X82296000Y-46736000D02*
X82296000Y-41910000D01*
X75184000Y-46736000D02*
X82296000Y-46736000D01*
X75184000Y-41910000D02*
X75184000Y-46736000D01*
X66040000Y-100965000D02*
X66040000Y-100330000D01*
X91440000Y-100330000D02*
X91440000Y-100965000D01*
X66040000Y-100965000D02*
G75*
G03X68580000Y-103505000I2540000J0D01*
G01*
X88900000Y-103505000D02*
G75*
G03X91440000Y-100965000I0J2540000D01*
G01*
X91440000Y-41910000D02*
X91440000Y-45720000D01*
X66040000Y-45720000D02*
X66040000Y-41910000D01*
X91440000Y-100330000D02*
X91440000Y-96520000D01*
X66040000Y-96520000D02*
X66040000Y-100330000D01*
X66040000Y-46990000D02*
X66040000Y-45720000D01*
X91440000Y-46990000D02*
X91440000Y-45720000D01*
X91440000Y-96520000D02*
X91440000Y-46990000D01*
X66040000Y-46990000D02*
X66040000Y-96520000D01*
D12*
X83565000Y-46745600D03*
X83565000Y-43445600D03*
X73915000Y-46745600D03*
X73915000Y-43445600D03*
D13*
X89535000Y-101600000D03*
X67945000Y-43815000D03*
X89535000Y-43815000D03*
X67945000Y-101600000D03*
D14*
X69850000Y-98552000D03*
X72390000Y-98552000D03*
X74930000Y-98552000D03*
X77470000Y-98552000D03*
X80010000Y-98552000D03*
X82550000Y-98552000D03*
X85090000Y-98552000D03*
X87630000Y-98552000D03*
D15*
X90170000Y-72390000D03*
X90170000Y-74930000D03*
X90170000Y-77470000D03*
X90170000Y-80010000D03*
X90170000Y-82550000D03*
X90170000Y-85090000D03*
X90170000Y-87630000D03*
X90170000Y-90170000D03*
X90170000Y-92710000D03*
X90170000Y-95250000D03*
X90170000Y-69850000D03*
X90170000Y-67310000D03*
X90170000Y-64770000D03*
X90170000Y-62230000D03*
X90170000Y-59690000D03*
X90170000Y-57150000D03*
X90170000Y-54610000D03*
X90170000Y-52070000D03*
X90170000Y-49530000D03*
X90170000Y-46990000D03*
X67310000Y-72390000D03*
X67310000Y-74930000D03*
X67310000Y-77470000D03*
X67310000Y-80010000D03*
X67310000Y-82550000D03*
X67310000Y-85090000D03*
X67310000Y-87630000D03*
X67310000Y-90170000D03*
X67310000Y-92710000D03*
X67310000Y-95250000D03*
X67310000Y-46990000D03*
X67310000Y-49530000D03*
X67310000Y-52070000D03*
X67310000Y-54610000D03*
X67310000Y-57150000D03*
X67310000Y-59690000D03*
X67310000Y-62230000D03*
X67310000Y-64770000D03*
X67310000Y-67310000D03*
X67310000Y-69850000D03*
D16*
X83820000Y-92964000D03*
D17*
X83820000Y-95504000D03*
X81280000Y-92964000D03*
X81280000Y-95504000D03*
X78740000Y-92964000D03*
X78740000Y-95504000D03*
X76200000Y-92964000D03*
X76200000Y-95504000D03*
X73660000Y-92964000D03*
X73660000Y-95504000D03*
M02*
