G04 #@! TF.FileFunction,Copper,L1,Top,Signal*
%FSLAX46Y46*%
G04 Gerber Fmt 4.6, Leading zero omitted, Abs format (unit mm)*
G04 Created by KiCad (PCBNEW (2015-01-16 BZR 5376)-product) date 01-Oct-16 1:27:22 PM*
%MOMM*%
G01*
G04 APERTURE LIST*
%ADD10C,0.150000*%
%ADD11C,0.100000*%
%ADD12R,0.400000X1.500000*%
%ADD13R,2.200000X2.500000*%
%ADD14C,3.000000*%
%ADD15O,1.727200X2.032000*%
%ADD16O,2.032000X1.727200*%
%ADD17R,1.727200X1.727200*%
%ADD18O,1.727200X1.727200*%
%ADD19R,0.750000X1.200000*%
%ADD20R,0.797560X0.797560*%
%ADD21R,0.600000X1.500000*%
%ADD22R,1.500000X0.600000*%
%ADD23R,0.900000X1.200000*%
%ADD24R,1.200000X0.750000*%
%ADD25R,0.231140X1.000760*%
%ADD26R,1.000760X0.231140*%
%ADD27R,1.501140X1.501140*%
%ADD28C,0.299720*%
%ADD29R,1.200000X0.900000*%
%ADD30R,1.200000X1.100000*%
%ADD31R,1.600000X1.300000*%
%ADD32C,0.760000*%
%ADD33C,0.910000*%
%ADD34C,0.508000*%
%ADD35C,0.381000*%
%ADD36C,0.304800*%
%ADD37C,0.254000*%
G04 APERTURE END LIST*
D10*
D11*
X69850000Y-103505000D02*
X68580000Y-103505000D01*
X88900000Y-103505000D02*
X87630000Y-103505000D01*
X86995000Y-104140000D02*
X87630000Y-103505000D01*
X70485000Y-104140000D02*
X86995000Y-104140000D01*
X69850000Y-103505000D02*
X70485000Y-104140000D01*
X82296000Y-41910000D02*
X82550000Y-41910000D01*
X75184000Y-41910000D02*
X74930000Y-41910000D01*
X85090000Y-41910000D02*
X82550000Y-41910000D01*
X85725000Y-41275000D02*
X85090000Y-41910000D01*
X91440000Y-41275000D02*
X85725000Y-41275000D01*
X91440000Y-41910000D02*
X91440000Y-41275000D01*
X72390000Y-41910000D02*
X74930000Y-41910000D01*
X71755000Y-41275000D02*
X72390000Y-41910000D01*
X66040000Y-41275000D02*
X71755000Y-41275000D01*
X66040000Y-41910000D02*
X66040000Y-41275000D01*
X82296000Y-46736000D02*
X82296000Y-41910000D01*
X75184000Y-46736000D02*
X82296000Y-46736000D01*
X75184000Y-41910000D02*
X75184000Y-46736000D01*
X66040000Y-100965000D02*
X66040000Y-100330000D01*
X91440000Y-100330000D02*
X91440000Y-100965000D01*
X66040000Y-100965000D02*
G75*
G03X68580000Y-103505000I2540000J0D01*
G01*
X88900000Y-103505000D02*
G75*
G03X91440000Y-100965000I0J2540000D01*
G01*
X91440000Y-41910000D02*
X91440000Y-45720000D01*
X66040000Y-45720000D02*
X66040000Y-41910000D01*
X91440000Y-100330000D02*
X91440000Y-96520000D01*
X66040000Y-96520000D02*
X66040000Y-100330000D01*
X66040000Y-46990000D02*
X66040000Y-45720000D01*
X91440000Y-46990000D02*
X91440000Y-45720000D01*
X91440000Y-96520000D02*
X91440000Y-46990000D01*
X66040000Y-46990000D02*
X66040000Y-96520000D01*
D12*
X80040000Y-47445600D03*
X79390000Y-47445600D03*
X78740000Y-47445600D03*
X78090000Y-47445600D03*
X77440000Y-47445600D03*
D13*
X83565000Y-46745600D03*
X83565000Y-43445600D03*
X73915000Y-46745600D03*
X73915000Y-43445600D03*
D14*
X89535000Y-101600000D03*
X67945000Y-43815000D03*
X89535000Y-43815000D03*
X67945000Y-101600000D03*
D15*
X69850000Y-98552000D03*
X72390000Y-98552000D03*
X74930000Y-98552000D03*
X77470000Y-98552000D03*
X80010000Y-98552000D03*
X82550000Y-98552000D03*
X85090000Y-98552000D03*
X87630000Y-98552000D03*
D16*
X90170000Y-72390000D03*
X90170000Y-74930000D03*
X90170000Y-77470000D03*
X90170000Y-80010000D03*
X90170000Y-82550000D03*
X90170000Y-85090000D03*
X90170000Y-87630000D03*
X90170000Y-90170000D03*
X90170000Y-92710000D03*
X90170000Y-95250000D03*
X90170000Y-69850000D03*
X90170000Y-67310000D03*
X90170000Y-64770000D03*
X90170000Y-62230000D03*
X90170000Y-59690000D03*
X90170000Y-57150000D03*
X90170000Y-54610000D03*
X90170000Y-52070000D03*
X90170000Y-49530000D03*
X90170000Y-46990000D03*
X67310000Y-72390000D03*
X67310000Y-74930000D03*
X67310000Y-77470000D03*
X67310000Y-80010000D03*
X67310000Y-82550000D03*
X67310000Y-85090000D03*
X67310000Y-87630000D03*
X67310000Y-90170000D03*
X67310000Y-92710000D03*
X67310000Y-95250000D03*
X67310000Y-46990000D03*
X67310000Y-49530000D03*
X67310000Y-52070000D03*
X67310000Y-54610000D03*
X67310000Y-57150000D03*
X67310000Y-59690000D03*
X67310000Y-62230000D03*
X67310000Y-64770000D03*
X67310000Y-67310000D03*
X67310000Y-69850000D03*
D17*
X83820000Y-92964000D03*
D18*
X83820000Y-95504000D03*
X81280000Y-92964000D03*
X81280000Y-95504000D03*
X78740000Y-92964000D03*
X78740000Y-95504000D03*
X76200000Y-92964000D03*
X76200000Y-95504000D03*
X73660000Y-92964000D03*
X73660000Y-95504000D03*
D19*
X72034400Y-59044800D03*
X72034400Y-60944800D03*
X85496400Y-59044800D03*
X85496400Y-60944800D03*
X83515200Y-86426000D03*
X83515200Y-88326000D03*
X84886800Y-86426000D03*
X84886800Y-88326000D03*
D20*
X71272400Y-48882300D03*
X71272400Y-50380900D03*
X85902800Y-50177700D03*
X85902800Y-48679100D03*
D21*
X84740000Y-65760000D03*
X83940000Y-65760000D03*
X83140000Y-65760000D03*
X82340000Y-65760000D03*
X81540000Y-65760000D03*
X80740000Y-65760000D03*
X79940000Y-65760000D03*
X79140000Y-65760000D03*
X78340000Y-65760000D03*
X77540000Y-65760000D03*
X76740000Y-65760000D03*
X75940000Y-65760000D03*
X75140000Y-65760000D03*
X74340000Y-65760000D03*
X73540000Y-65760000D03*
X72740000Y-65760000D03*
D22*
X70840000Y-67660000D03*
X70840000Y-68460000D03*
X70840000Y-69260000D03*
X70840000Y-70060000D03*
X70840000Y-70860000D03*
X70840000Y-71660000D03*
X70840000Y-72460000D03*
X70840000Y-73260000D03*
X70840000Y-74060000D03*
X70840000Y-74860000D03*
X70840000Y-75660000D03*
X70840000Y-76460000D03*
X70840000Y-77260000D03*
X70840000Y-78060000D03*
X70840000Y-78860000D03*
X70840000Y-79660000D03*
D21*
X72740000Y-81560000D03*
X73540000Y-81560000D03*
X74340000Y-81560000D03*
X75140000Y-81560000D03*
X75940000Y-81560000D03*
X76740000Y-81560000D03*
X77540000Y-81560000D03*
X78340000Y-81560000D03*
X79140000Y-81560000D03*
X79940000Y-81560000D03*
X80740000Y-81560000D03*
X81540000Y-81560000D03*
X82340000Y-81560000D03*
X83140000Y-81560000D03*
X83940000Y-81560000D03*
X84740000Y-81560000D03*
D22*
X86640000Y-79660000D03*
X86640000Y-78860000D03*
X86640000Y-78060000D03*
X86640000Y-77260000D03*
X86640000Y-76460000D03*
X86640000Y-75660000D03*
X86640000Y-74860000D03*
X86640000Y-74060000D03*
X86640000Y-73260000D03*
X86640000Y-72460000D03*
X86640000Y-71660000D03*
X86640000Y-70860000D03*
X86640000Y-70060000D03*
X86640000Y-69260000D03*
X86640000Y-68460000D03*
X86640000Y-67660000D03*
D23*
X73533000Y-89238000D03*
X73533000Y-87038000D03*
X71323200Y-51884400D03*
X71323200Y-54084400D03*
X85902800Y-54135200D03*
X85902800Y-51935200D03*
D19*
X74269600Y-52186800D03*
X74269600Y-54086800D03*
X72847200Y-54086800D03*
X72847200Y-52186800D03*
D24*
X71968400Y-63449200D03*
X70068400Y-63449200D03*
D23*
X84124800Y-51427200D03*
X84124800Y-53627200D03*
D25*
X77238860Y-51653440D03*
X77739240Y-51653440D03*
X78239620Y-51653440D03*
X78740000Y-51653440D03*
X79240380Y-51653440D03*
X79740760Y-51653440D03*
X80241140Y-51653440D03*
D26*
X81239360Y-52651660D03*
X81239360Y-53152040D03*
X81239360Y-53652420D03*
X81239360Y-54152800D03*
X81239360Y-54653180D03*
X81239360Y-55153560D03*
X81239360Y-55653940D03*
D25*
X80241140Y-56652160D03*
X79740760Y-56652160D03*
X79240380Y-56652160D03*
X78740000Y-56652160D03*
X78239620Y-56652160D03*
X77739240Y-56652160D03*
X77238860Y-56652160D03*
D26*
X76240640Y-55653940D03*
X76240640Y-55153560D03*
X76240640Y-54653180D03*
X76240640Y-54152800D03*
X76240640Y-53652420D03*
X76240640Y-53152040D03*
X76240640Y-52651660D03*
D27*
X78740000Y-54152800D03*
D28*
X80990440Y-51902360D03*
D29*
X83024800Y-56743600D03*
X85224800Y-56743600D03*
D30*
X75740260Y-85018880D03*
X81739740Y-88717120D03*
X75740260Y-88717120D03*
X81739740Y-85018880D03*
D31*
X76586000Y-62300500D03*
X80386000Y-62300500D03*
X80386000Y-60000500D03*
X76586000Y-60000500D03*
D32*
X78092300Y-79806800D03*
X78384400Y-67818000D03*
X78232000Y-76708000D03*
X86868000Y-55930800D03*
X86309200Y-65125600D03*
X87122000Y-50749200D03*
X80670400Y-49174400D03*
X74726800Y-50800000D03*
D33*
X80899000Y-83502500D03*
X82359500Y-86487000D03*
X75184000Y-86360000D03*
D32*
X68986400Y-69037200D03*
X68783200Y-63550800D03*
D33*
X71729600Y-88290400D03*
X76657200Y-86512400D03*
D32*
X84023200Y-67259200D03*
X83667600Y-50190400D03*
X79717900Y-67373500D03*
X78955900Y-59359800D03*
X75526900Y-56476900D03*
X76403200Y-79743300D03*
X77012800Y-67462400D03*
X76758800Y-72999600D03*
X84328000Y-60147200D03*
X82397600Y-67310000D03*
X82651600Y-55626000D03*
X82143600Y-61468000D03*
X80721200Y-76403200D03*
X73558400Y-70256400D03*
X87528400Y-59537600D03*
X87680800Y-65227200D03*
X70713600Y-58775600D03*
X84175600Y-58166000D03*
X72745600Y-49733200D03*
X74371200Y-55422800D03*
X77749400Y-75755500D03*
X81546700Y-50419000D03*
D33*
X80899000Y-87058500D03*
D32*
X73152000Y-61658500D03*
X75755500Y-61595000D03*
X75946000Y-71132700D03*
X84378800Y-61569600D03*
X78282800Y-70154800D03*
X77406500Y-63881000D03*
X75082400Y-60045600D03*
X72390000Y-75692000D03*
X72440800Y-77266800D03*
X73304400Y-77571600D03*
X73406000Y-78536800D03*
X72440800Y-79603600D03*
X71539100Y-90728800D03*
X84937600Y-75793600D03*
X84785200Y-74777600D03*
X87274400Y-92252800D03*
X84226400Y-73863200D03*
X86512400Y-91440000D03*
X84277200Y-72898000D03*
X85902800Y-89357200D03*
X84378800Y-71932800D03*
X85191600Y-84886800D03*
X84480400Y-70967600D03*
X84632800Y-84023200D03*
X82143600Y-71780400D03*
X84175600Y-85039200D03*
X79959200Y-63754000D03*
X78943200Y-63550800D03*
X75895200Y-73761600D03*
X77571600Y-73710800D03*
X80924400Y-70662800D03*
X80924400Y-71780400D03*
X77622400Y-74726800D03*
X75387200Y-74777600D03*
X74472800Y-70053200D03*
X77978000Y-59436000D03*
X72999600Y-63703200D03*
X82854800Y-52578000D03*
X74536300Y-56388000D03*
X79451200Y-49377600D03*
X78028800Y-49479200D03*
D34*
X78232000Y-78486000D02*
X78232000Y-79667100D01*
D35*
X78232000Y-79667100D02*
X78092300Y-79806800D01*
D34*
X78232000Y-76708000D02*
X78232000Y-78486000D01*
D35*
X78232000Y-78486000D02*
X78232000Y-78638400D01*
X77622400Y-68580000D02*
X76809600Y-68580000D01*
X78384400Y-67818000D02*
X77622400Y-68580000D01*
D34*
X81686400Y-77260000D02*
X78784000Y-77260000D01*
X78784000Y-77260000D02*
X78232000Y-76708000D01*
X86640000Y-77260000D02*
X81686400Y-77260000D01*
D35*
X81686400Y-77260000D02*
X80816000Y-77260000D01*
X78638400Y-68580000D02*
X82753200Y-68580000D01*
X82753200Y-68580000D02*
X82727800Y-68605400D01*
X82727800Y-68605400D02*
X84201000Y-68605400D01*
X84201000Y-68605400D02*
X85146400Y-67660000D01*
X85146400Y-67660000D02*
X86640000Y-67660000D01*
D34*
X76708000Y-68580000D02*
X78638400Y-68580000D01*
X74980800Y-68580000D02*
X76708000Y-68580000D01*
X70840000Y-70860000D02*
X71989600Y-70860000D01*
X73558400Y-68580000D02*
X74980800Y-68580000D01*
D35*
X74980800Y-68580000D02*
X75031600Y-68580000D01*
D34*
X72694800Y-69443600D02*
X73558400Y-68580000D01*
X72694800Y-70154800D02*
X72694800Y-69443600D01*
X71989600Y-70860000D02*
X72694800Y-70154800D01*
X86640000Y-67660000D02*
X87483200Y-67660000D01*
X86868000Y-55930800D02*
X85902800Y-54965600D01*
X85902800Y-54965600D02*
X85902800Y-54135200D01*
X87483200Y-67660000D02*
X87833200Y-67310000D01*
X87833200Y-67310000D02*
X87833200Y-66751200D01*
X87833200Y-66751200D02*
X86309200Y-65227200D01*
D35*
X86309200Y-65227200D02*
X86309200Y-65125600D01*
D34*
X85902800Y-54135200D02*
X86682400Y-54135200D01*
X86682400Y-54135200D02*
X87122000Y-53695600D01*
X87122000Y-53695600D02*
X87122000Y-50749200D01*
D35*
X80040000Y-47445600D02*
X80040000Y-48544000D01*
X80040000Y-48544000D02*
X80670400Y-49174400D01*
D34*
X74269600Y-52186800D02*
X74269600Y-51257200D01*
X74269600Y-51257200D02*
X74726800Y-50800000D01*
D36*
X76240640Y-52651660D02*
X74734460Y-52651660D01*
X74734460Y-52651660D02*
X74269600Y-52186800D01*
X77238860Y-51653440D02*
X77238860Y-50670460D01*
X75184000Y-50342800D02*
X74269600Y-51257200D01*
X76911200Y-50342800D02*
X75184000Y-50342800D01*
X77238860Y-50670460D02*
X76911200Y-50342800D01*
D34*
X73533000Y-87038000D02*
X73533000Y-86741000D01*
X83515200Y-86426000D02*
X84886800Y-86426000D01*
X85273400Y-67660000D02*
X84289900Y-68643500D01*
D35*
X84289900Y-68643500D02*
X78740000Y-68643500D01*
X78740000Y-68643500D02*
X78384400Y-68287900D01*
D34*
X78384400Y-68287900D02*
X78384400Y-67818000D01*
X86640000Y-67660000D02*
X85273400Y-67660000D01*
X83515200Y-86426000D02*
X83515200Y-85991700D01*
X81026000Y-83375500D02*
X80899000Y-83502500D01*
X83515200Y-85991700D02*
X83185000Y-85661500D01*
X82550000Y-83375500D02*
X81470500Y-83375500D01*
X83185000Y-84010500D02*
X82550000Y-83375500D01*
X83185000Y-85661500D02*
X83185000Y-84010500D01*
X81470500Y-83375500D02*
X81026000Y-83375500D01*
X82359500Y-86487000D02*
X82420500Y-86426000D01*
X82420500Y-86426000D02*
X83515200Y-86426000D01*
X74320400Y-86360000D02*
X75184000Y-86360000D01*
X73642400Y-87038000D02*
X74320400Y-86360000D01*
X73533000Y-87038000D02*
X73642400Y-87038000D01*
D35*
X70840000Y-70060000D02*
X69538400Y-70060000D01*
X69538400Y-70060000D02*
X68834000Y-70764400D01*
X70068400Y-63449200D02*
X68884800Y-63449200D01*
X69113400Y-69164200D02*
X69113400Y-70485000D01*
X68986400Y-69037200D02*
X69113400Y-69164200D01*
X68884800Y-63449200D02*
X68783200Y-63550800D01*
D36*
X67411600Y-74930000D02*
X67310000Y-74930000D01*
X69538400Y-70060000D02*
X69113400Y-70485000D01*
X69113400Y-70485000D02*
X68834000Y-70764400D01*
X68834000Y-70764400D02*
X68834000Y-73507600D01*
X68834000Y-73507600D02*
X67411600Y-74930000D01*
D35*
X72524800Y-89238000D02*
X71729600Y-88442800D01*
X71729600Y-88442800D02*
X71729600Y-88290400D01*
X73533000Y-89238000D02*
X72524800Y-89238000D01*
X73533000Y-89238000D02*
X73533000Y-88963500D01*
D34*
X76657200Y-86512400D02*
X75740260Y-85595460D01*
X75740260Y-85595460D02*
X75740260Y-85018880D01*
X73533000Y-89238000D02*
X73533000Y-88976200D01*
X76657200Y-86868000D02*
X76200000Y-87325200D01*
X76200000Y-87325200D02*
X75184000Y-87325200D01*
X75184000Y-87325200D02*
X74726800Y-87782400D01*
X74726800Y-87782400D02*
X73533000Y-88976200D01*
X76657200Y-86512400D02*
X76657200Y-86868000D01*
D35*
X83940000Y-65760000D02*
X83940000Y-67176000D01*
X83940000Y-67176000D02*
X84023200Y-67259200D01*
X84124800Y-51427200D02*
X84124800Y-50647600D01*
X84124800Y-50647600D02*
X83667600Y-50190400D01*
X78955900Y-59359800D02*
X79057500Y-59258200D01*
X81953100Y-68046598D02*
X80390998Y-68046598D01*
X84023200Y-67589400D02*
X83566002Y-68046598D01*
X83566002Y-68046598D02*
X81953100Y-68046598D01*
X84023200Y-67259200D02*
X84023200Y-67589400D01*
X80390998Y-68046598D02*
X79717900Y-67373500D01*
X77228700Y-58178700D02*
X75526900Y-56476900D01*
X78333600Y-58178700D02*
X77228700Y-58178700D01*
X78955900Y-58801000D02*
X78333600Y-58178700D01*
X78955900Y-59359800D02*
X78955900Y-58801000D01*
X76758800Y-76720700D02*
X76758800Y-79387700D01*
X76758800Y-79387700D02*
X76403200Y-79743300D01*
X76740000Y-65760000D02*
X76740000Y-67189600D01*
X76740000Y-67189600D02*
X77012800Y-67462400D01*
X76758800Y-78282800D02*
X76758800Y-76720700D01*
X76758800Y-76720700D02*
X76758800Y-72999600D01*
D36*
X68478400Y-54610000D02*
X67310000Y-54610000D01*
X70561200Y-56692800D02*
X68478400Y-54610000D01*
X73050400Y-56692800D02*
X70561200Y-56692800D01*
X73964800Y-57607200D02*
X73050400Y-56692800D01*
X74930000Y-62534800D02*
X74930000Y-60896500D01*
X76740000Y-65760000D02*
X76740000Y-64344800D01*
X76740000Y-64344800D02*
X74930000Y-62534800D01*
X73964800Y-59931300D02*
X74930000Y-60896500D01*
X73964800Y-57607200D02*
X73964800Y-59931300D01*
D35*
X83024800Y-58844000D02*
X83024800Y-56743600D01*
X84328000Y-60147200D02*
X83024800Y-58844000D01*
X83140000Y-66567600D02*
X82397600Y-67310000D01*
D36*
X71272400Y-48882300D02*
X67957700Y-48882300D01*
X67957700Y-48882300D02*
X67310000Y-49530000D01*
D35*
X83140000Y-66567600D02*
X82397600Y-67310000D01*
X83140000Y-65760000D02*
X83140000Y-66567600D01*
X83024800Y-56743600D02*
X83024800Y-55999200D01*
X83024800Y-55999200D02*
X82651600Y-55626000D01*
D34*
X80386000Y-62300500D02*
X81311100Y-62300500D01*
X81311100Y-62300500D02*
X82143600Y-61468000D01*
D35*
X85394800Y-76555600D02*
X80873600Y-76555600D01*
X85490400Y-76460000D02*
X85394800Y-76555600D01*
X86640000Y-76460000D02*
X85490400Y-76460000D01*
X80873600Y-76555600D02*
X80721200Y-76403200D01*
X73558400Y-70256400D02*
X72154800Y-71660000D01*
X72154800Y-71660000D02*
X70840000Y-71660000D01*
D34*
X86640000Y-68460000D02*
X88207200Y-68460000D01*
X87680800Y-59385200D02*
X87680800Y-57962800D01*
D35*
X87528400Y-59537600D02*
X87680800Y-59385200D01*
D34*
X88544400Y-66090800D02*
X87680800Y-65227200D01*
X88544400Y-68122800D02*
X88544400Y-66090800D01*
X88207200Y-68460000D02*
X88544400Y-68122800D01*
D35*
X70982800Y-59044800D02*
X70713600Y-58775600D01*
D34*
X84175600Y-58166000D02*
X85054400Y-59044800D01*
X85054400Y-59044800D02*
X85496400Y-59044800D01*
X85496400Y-59044800D02*
X86598800Y-59044800D01*
X89052400Y-49530000D02*
X90170000Y-49530000D01*
X88188800Y-50393600D02*
X89052400Y-49530000D01*
X88188800Y-57454800D02*
X88188800Y-50393600D01*
X86598800Y-59044800D02*
X87680800Y-57962800D01*
X87680800Y-57962800D02*
X88188800Y-57454800D01*
D35*
X85496400Y-59044800D02*
X85836800Y-59044800D01*
X77440000Y-48696400D02*
X76860400Y-49276000D01*
X76860400Y-49276000D02*
X73202800Y-49276000D01*
D34*
X73202800Y-49276000D02*
X72745600Y-49733200D01*
D35*
X77440000Y-47445600D02*
X77440000Y-48696400D01*
D34*
X74269600Y-55321200D02*
X74269600Y-54086800D01*
D35*
X74371200Y-55422800D02*
X74269600Y-55321200D01*
D36*
X79240380Y-51653440D02*
X79240380Y-50452020D01*
D34*
X81991200Y-48971200D02*
X85610700Y-48971200D01*
D36*
X80822800Y-50139600D02*
X81991200Y-48971200D01*
X79552800Y-50139600D02*
X80822800Y-50139600D01*
X79240380Y-50452020D02*
X79552800Y-50139600D01*
X85610700Y-48971200D02*
X85902800Y-48679100D01*
D34*
X86931500Y-48679100D02*
X87782400Y-49530000D01*
X85902800Y-48679100D02*
X86931500Y-48679100D01*
X87782400Y-49530000D02*
X90170000Y-49530000D01*
X72847200Y-54086800D02*
X71325600Y-54086800D01*
D36*
X71325600Y-54086800D02*
X71323200Y-54084400D01*
D34*
X74269600Y-54086800D02*
X72847200Y-54086800D01*
X84886800Y-88326000D02*
X83515200Y-88326000D01*
X77749400Y-75755500D02*
X78016100Y-75488800D01*
X78016100Y-75488800D02*
X79806800Y-75488800D01*
X79806800Y-75488800D02*
X80721200Y-76403200D01*
X81546700Y-50419000D02*
X83286600Y-48679100D01*
X83286600Y-48679100D02*
X85902800Y-48679100D01*
X70982800Y-59044800D02*
X70713600Y-58775600D01*
X72034400Y-59044800D02*
X70982800Y-59044800D01*
X82130860Y-88326000D02*
X81739740Y-88717120D01*
X83515200Y-88326000D02*
X82130860Y-88326000D01*
X81739740Y-87899240D02*
X80899000Y-87058500D01*
X81739740Y-88717120D02*
X81739740Y-87899240D01*
X78886000Y-62300500D02*
X76586000Y-60000500D01*
X80386000Y-62300500D02*
X78886000Y-62300500D01*
D35*
X70840000Y-72460000D02*
X73488400Y-72460000D01*
D34*
X73152000Y-61658500D02*
X72438300Y-60944800D01*
X72438300Y-60944800D02*
X72034400Y-60944800D01*
X76461000Y-62300500D02*
X75755500Y-61595000D01*
X76586000Y-62300500D02*
X76461000Y-62300500D01*
D35*
X75101300Y-72460000D02*
X75946000Y-71615300D01*
X75946000Y-71615300D02*
X75946000Y-71132700D01*
X70840000Y-72460000D02*
X75101300Y-72460000D01*
D34*
X84378800Y-61569600D02*
X84378800Y-61417200D01*
X82149300Y-60000500D02*
X80386000Y-60000500D01*
X82962100Y-60000500D02*
X82149300Y-60000500D01*
X84378800Y-61417200D02*
X82962100Y-60000500D01*
X85003600Y-60944800D02*
X85496400Y-60944800D01*
X84378800Y-61569600D02*
X85003600Y-60944800D01*
X70840000Y-73260000D02*
X75177600Y-73260000D01*
X75177600Y-73260000D02*
X78282800Y-70154800D01*
D36*
X71323200Y-51884400D02*
X71323200Y-50431700D01*
X71323200Y-50431700D02*
X71272400Y-50380900D01*
X85902800Y-51935200D02*
X85902800Y-50177700D01*
X68834000Y-52070000D02*
X67310000Y-52070000D01*
X69646800Y-52882800D02*
X68834000Y-52070000D01*
X69646800Y-54559200D02*
X69646800Y-52882800D01*
X70815200Y-55727600D02*
X69646800Y-54559200D01*
X72542400Y-55727600D02*
X70815200Y-55727600D01*
X72834500Y-55727600D02*
X72542400Y-55727600D01*
X77540000Y-64014500D02*
X77406500Y-63881000D01*
X75082400Y-60045600D02*
X74828400Y-59791600D01*
X74828400Y-59791600D02*
X74828400Y-57708800D01*
X74828400Y-57708800D02*
X72847200Y-55727600D01*
X72847200Y-55727600D02*
X72542400Y-55727600D01*
X77540000Y-65760000D02*
X77540000Y-64014500D01*
X72847200Y-57200800D02*
X67360800Y-57200800D01*
X73482200Y-57835800D02*
X72847200Y-57200800D01*
X75940000Y-65760000D02*
X75940000Y-64256000D01*
X74422000Y-62738000D02*
X74422000Y-61087000D01*
X75940000Y-64256000D02*
X74422000Y-62738000D01*
X67360800Y-57200800D02*
X67310000Y-57150000D01*
X73482200Y-60147200D02*
X74422000Y-61087000D01*
X73482200Y-57835800D02*
X73482200Y-60147200D01*
X72967850Y-58032650D02*
X72745600Y-57810400D01*
X69850000Y-57810400D02*
X67970400Y-59690000D01*
X72745600Y-57810400D02*
X69850000Y-57810400D01*
X67970400Y-59690000D02*
X67310000Y-59690000D01*
X73964798Y-62991998D02*
X73964798Y-61341000D01*
X75140000Y-65760000D02*
X75140000Y-64167200D01*
X75140000Y-64167200D02*
X73964798Y-62991998D01*
X72967850Y-60344052D02*
X73964798Y-61341000D01*
X72967850Y-58032650D02*
X72967850Y-60344052D01*
X74340000Y-65760000D02*
X74340000Y-64027600D01*
X72593200Y-62280800D02*
X67360800Y-62280800D01*
X74340000Y-64027600D02*
X72593200Y-62280800D01*
X67360800Y-62280800D02*
X67310000Y-62230000D01*
X73540000Y-65760000D02*
X73540000Y-64802400D01*
X69850000Y-64770000D02*
X67310000Y-64770000D01*
X70154800Y-64465200D02*
X69850000Y-64770000D01*
X73202800Y-64465200D02*
X70154800Y-64465200D01*
X73540000Y-64802400D02*
X73202800Y-64465200D01*
X72740000Y-65760000D02*
X69723600Y-65760000D01*
X69723600Y-65760000D02*
X68173600Y-67310000D01*
X68173600Y-67310000D02*
X67310000Y-67310000D01*
D35*
X67310000Y-69799200D02*
X67310000Y-69850000D01*
D36*
X67310000Y-69494400D02*
X67310000Y-69850000D01*
X69144400Y-67660000D02*
X67310000Y-69494400D01*
X70840000Y-67660000D02*
X69144400Y-67660000D01*
X72358000Y-75660000D02*
X72390000Y-75692000D01*
X70840000Y-75660000D02*
X72358000Y-75660000D01*
X67360800Y-85090000D02*
X67310000Y-85090000D01*
X69894800Y-76460000D02*
X69342000Y-77012800D01*
X69342000Y-77012800D02*
X69342000Y-83108800D01*
X69342000Y-83108800D02*
X67360800Y-85090000D01*
X70840000Y-76460000D02*
X69894800Y-76460000D01*
X72434000Y-77260000D02*
X72440800Y-77266800D01*
X70840000Y-77260000D02*
X72434000Y-77260000D01*
X72816000Y-78060000D02*
X73304400Y-77571600D01*
X70840000Y-78060000D02*
X72816000Y-78060000D01*
X73082800Y-78860000D02*
X73406000Y-78536800D01*
X70840000Y-78860000D02*
X73082800Y-78860000D01*
X72384400Y-79660000D02*
X72440800Y-79603600D01*
X70840000Y-79660000D02*
X72384400Y-79660000D01*
X69392800Y-98094800D02*
X69850000Y-98552000D01*
X74340000Y-82581200D02*
X69392800Y-87528400D01*
X69392800Y-87528400D02*
X69392800Y-98094800D01*
X74340000Y-81560000D02*
X74340000Y-82581200D01*
X75140000Y-82644800D02*
X70104000Y-87680800D01*
X70104000Y-87680800D02*
X70104000Y-96266000D01*
X70104000Y-96266000D02*
X72390000Y-98552000D01*
X75140000Y-81560000D02*
X75140000Y-82644800D01*
X75940000Y-82657600D02*
X70815200Y-87782400D01*
X70815200Y-87782400D02*
X70815200Y-95656400D01*
X70815200Y-95656400D02*
X72237600Y-97078800D01*
X72237600Y-97078800D02*
X73456800Y-97078800D01*
X73456800Y-97078800D02*
X74930000Y-98552000D01*
X75940000Y-81560000D02*
X75940000Y-82657600D01*
X76466700Y-90462100D02*
X71805800Y-90462100D01*
X71805800Y-90462100D02*
X71539100Y-90728800D01*
X76740000Y-81560000D02*
X76740000Y-84817200D01*
X77520800Y-89408000D02*
X76466700Y-90462100D01*
X77520800Y-85598000D02*
X77520800Y-89408000D01*
X76740000Y-84817200D02*
X77520800Y-85598000D01*
X77540000Y-81560000D02*
X77540000Y-83534400D01*
X78130400Y-90982800D02*
X77470000Y-91643200D01*
X78130400Y-84124800D02*
X78130400Y-90982800D01*
X77540000Y-83534400D02*
X78130400Y-84124800D01*
X78638400Y-97180400D02*
X80010000Y-98552000D01*
X77470000Y-92710000D02*
X77470000Y-91643200D01*
X77470000Y-93319600D02*
X77470000Y-96266000D01*
X77470000Y-92710000D02*
X77470000Y-93319600D01*
X77470000Y-96266000D02*
X78384400Y-97180400D01*
X78384400Y-97180400D02*
X78638400Y-97180400D01*
D37*
X82340000Y-64662500D02*
X82677000Y-64325500D01*
X82677000Y-64325500D02*
X88582500Y-64325500D01*
D36*
X88582500Y-64325500D02*
X89027000Y-64770000D01*
X89027000Y-64770000D02*
X90170000Y-64770000D01*
D37*
X82340000Y-65760000D02*
X82340000Y-64662500D01*
D36*
X78340000Y-82600800D02*
X78340000Y-83470800D01*
X78638400Y-90728800D02*
X80010000Y-92100400D01*
X78638400Y-83769200D02*
X78638400Y-90728800D01*
X78340000Y-83470800D02*
X78638400Y-83769200D01*
X82296000Y-98552000D02*
X82550000Y-98552000D01*
X80010000Y-92100400D02*
X80010000Y-96266000D01*
X80010000Y-96266000D02*
X82296000Y-98552000D01*
X78340000Y-81560000D02*
X78340000Y-82600800D01*
X79140000Y-88919000D02*
X82550000Y-92329000D01*
X82550000Y-92329000D02*
X82550000Y-96520000D01*
X82550000Y-96520000D02*
X83210400Y-97180400D01*
X83210400Y-97180400D02*
X83718400Y-97180400D01*
X83718400Y-97180400D02*
X85090000Y-98552000D01*
X79140000Y-81560000D02*
X79140000Y-88919000D01*
X79940000Y-88639500D02*
X82791300Y-91490800D01*
X82791300Y-91490800D02*
X85191600Y-91490800D01*
X85191600Y-91490800D02*
X85394800Y-91694000D01*
X85394800Y-91694000D02*
X85394800Y-96316800D01*
X85394800Y-96316800D02*
X87630000Y-98552000D01*
X79940000Y-81560000D02*
X79940000Y-88639500D01*
D37*
X81540000Y-64713200D02*
X82499200Y-63754000D01*
X82499200Y-63754000D02*
X88646000Y-63754000D01*
D36*
X88646000Y-63754000D02*
X90170000Y-62230000D01*
D37*
X81540000Y-65760000D02*
X81540000Y-64713200D01*
D36*
X85071200Y-75660000D02*
X84937600Y-75793600D01*
X86640000Y-75660000D02*
X85071200Y-75660000D01*
X84867600Y-74860000D02*
X84785200Y-74777600D01*
X87274400Y-92252800D02*
X87731600Y-92710000D01*
X87731600Y-92710000D02*
X90170000Y-92710000D01*
X86640000Y-74860000D02*
X84867600Y-74860000D01*
X84423200Y-74060000D02*
X84226400Y-73863200D01*
X86512400Y-91440000D02*
X87782400Y-90170000D01*
X87782400Y-90170000D02*
X90170000Y-90170000D01*
X86640000Y-74060000D02*
X84423200Y-74060000D01*
X84639200Y-73260000D02*
X84277200Y-72898000D01*
X85902800Y-89357200D02*
X87630000Y-87630000D01*
X87630000Y-87630000D02*
X90170000Y-87630000D01*
X86640000Y-73260000D02*
X84639200Y-73260000D01*
X84906000Y-72460000D02*
X84378800Y-71932800D01*
X86640000Y-72460000D02*
X84906000Y-72460000D01*
X85191600Y-84886800D02*
X85394800Y-85090000D01*
X85394800Y-85090000D02*
X90170000Y-85090000D01*
X85172800Y-71660000D02*
X84480400Y-70967600D01*
X84632800Y-84023200D02*
X84836000Y-83820000D01*
X84836000Y-83820000D02*
X88900000Y-83820000D01*
X88900000Y-83820000D02*
X90170000Y-82550000D01*
X86640000Y-71660000D02*
X85172800Y-71660000D01*
X90170000Y-60147200D02*
X90170000Y-59690000D01*
D37*
X80740000Y-64802000D02*
X82296000Y-63246000D01*
X82296000Y-63246000D02*
X87071200Y-63246000D01*
X87071200Y-63246000D02*
X90170000Y-60147200D01*
X80740000Y-65760000D02*
X80740000Y-64802000D01*
D36*
X83718400Y-70205600D02*
X82143600Y-71780400D01*
X84886800Y-70205600D02*
X83718400Y-70205600D01*
X86640000Y-70860000D02*
X85541200Y-70860000D01*
X85541200Y-70860000D02*
X84886800Y-70205600D01*
X90170000Y-80518000D02*
X90170000Y-80010000D01*
X87528400Y-83159600D02*
X90170000Y-80518000D01*
X84226400Y-83159600D02*
X87528400Y-83159600D01*
X83921600Y-83464400D02*
X84226400Y-83159600D01*
X83921600Y-84785200D02*
X83921600Y-83464400D01*
X84175600Y-85039200D02*
X83921600Y-84785200D01*
X85541200Y-70860000D02*
X84886800Y-70205600D01*
X87586000Y-70060000D02*
X87985600Y-70459600D01*
X87985600Y-70459600D02*
X87985600Y-76606400D01*
X87985600Y-76606400D02*
X88849200Y-77470000D01*
X88849200Y-77470000D02*
X90170000Y-77470000D01*
X86640000Y-70060000D02*
X87586000Y-70060000D01*
D37*
X79940000Y-64789200D02*
X82397600Y-62331600D01*
X82397600Y-62331600D02*
X87172800Y-62331600D01*
X87172800Y-62331600D02*
X88646000Y-60858400D01*
X88646000Y-60858400D02*
X88646000Y-58674000D01*
D36*
X88646000Y-58674000D02*
X90170000Y-57150000D01*
D37*
X79940000Y-65760000D02*
X79940000Y-64789200D01*
D36*
X79140000Y-64573200D02*
X79959200Y-63754000D01*
X79140000Y-65760000D02*
X79140000Y-64573200D01*
X78340000Y-64154000D02*
X78340000Y-65760000D01*
X78943200Y-63550800D02*
X78340000Y-64154000D01*
X75596800Y-74060000D02*
X70840000Y-74060000D01*
X75895200Y-73761600D02*
X75596800Y-74060000D01*
X77876400Y-73710800D02*
X77571600Y-73710800D01*
X80924400Y-70662800D02*
X77876400Y-73710800D01*
X69450000Y-74060000D02*
X68732400Y-74777600D01*
X70840000Y-74060000D02*
X69450000Y-74060000D01*
X68732400Y-76047600D02*
X67310000Y-77470000D01*
X68732400Y-74777600D02*
X68732400Y-76047600D01*
X80924400Y-71780400D02*
X77978000Y-74726800D01*
X77978000Y-74726800D02*
X77622400Y-74726800D01*
X75387200Y-74777600D02*
X75304800Y-74860000D01*
X75304800Y-74860000D02*
X70840000Y-74860000D01*
X69615202Y-74860000D02*
X69291200Y-75184002D01*
X69291200Y-75184002D02*
X69291200Y-76200000D01*
X69291200Y-76200000D02*
X68783200Y-76708000D01*
X68783200Y-76708000D02*
X68783200Y-78536800D01*
X68783200Y-78536800D02*
X67310000Y-80010000D01*
X70840000Y-74860000D02*
X69615202Y-74860000D01*
D35*
X75266000Y-69260000D02*
X76676800Y-69260000D01*
X74472800Y-70053200D02*
X75266000Y-69260000D01*
D36*
X86640000Y-69260000D02*
X76708000Y-69260000D01*
X77739240Y-51653440D02*
X77739240Y-50205640D01*
X72847200Y-51054000D02*
X72847200Y-52186800D01*
X74066400Y-49834800D02*
X72847200Y-51054000D01*
X77368400Y-49834800D02*
X74066400Y-49834800D01*
X77739240Y-50205640D02*
X77368400Y-49834800D01*
X71968400Y-63449200D02*
X72644000Y-63449200D01*
X72745600Y-63449200D02*
X72999600Y-63703200D01*
X72644000Y-63449200D02*
X72745600Y-63449200D01*
D35*
X77978000Y-59232800D02*
X77978000Y-59436000D01*
D36*
X81239360Y-52651660D02*
X82781140Y-52651660D01*
X82781140Y-52651660D02*
X82854800Y-52578000D01*
D35*
X76631800Y-58737500D02*
X74536300Y-56642000D01*
X74536300Y-56642000D02*
X74536300Y-56388000D01*
X77978000Y-59245500D02*
X77470000Y-58737500D01*
X77470000Y-58737500D02*
X76631800Y-58737500D01*
X77978000Y-59436000D02*
X77978000Y-59245500D01*
D36*
X78239620Y-51653440D02*
X78239620Y-49690020D01*
X79390000Y-49316400D02*
X79390000Y-47445600D01*
X79451200Y-49377600D02*
X79390000Y-49316400D01*
X78239620Y-49690020D02*
X78028800Y-49479200D01*
X78740000Y-51653440D02*
X78740000Y-47445600D01*
X81239360Y-53652420D02*
X84099580Y-53652420D01*
X84099580Y-53652420D02*
X84124800Y-53627200D01*
X81239360Y-54152800D02*
X82397600Y-54152800D01*
X85224800Y-55862400D02*
X85224800Y-56743600D01*
X84480400Y-55118000D02*
X85224800Y-55862400D01*
X83362800Y-55118000D02*
X84480400Y-55118000D01*
X82397600Y-54152800D02*
X83362800Y-55118000D01*
D37*
G36*
X73680000Y-87165000D02*
X73660000Y-87165000D01*
X73660000Y-87185000D01*
X73406000Y-87185000D01*
X73406000Y-87165000D01*
X73386000Y-87165000D01*
X73386000Y-86911000D01*
X73406000Y-86911000D01*
X73406000Y-86891000D01*
X73660000Y-86891000D01*
X73660000Y-86911000D01*
X73680000Y-86911000D01*
X73680000Y-87165000D01*
X73680000Y-87165000D01*
G37*
X73680000Y-87165000D02*
X73660000Y-87165000D01*
X73660000Y-87185000D01*
X73406000Y-87185000D01*
X73406000Y-87165000D01*
X73386000Y-87165000D01*
X73386000Y-86911000D01*
X73406000Y-86911000D01*
X73406000Y-86891000D01*
X73660000Y-86891000D01*
X73660000Y-86911000D01*
X73680000Y-86911000D01*
X73680000Y-87165000D01*
G36*
X75323764Y-86436200D02*
X75184000Y-86436200D01*
X74843794Y-86503871D01*
X74618000Y-86654741D01*
X74618000Y-86311691D01*
X74521327Y-86078302D01*
X74342699Y-85899673D01*
X74109310Y-85803000D01*
X73908152Y-85803000D01*
X74492820Y-85218332D01*
X74492820Y-85568880D01*
X74539797Y-85811003D01*
X74679587Y-86023807D01*
X74890620Y-86166257D01*
X75101228Y-86208492D01*
X75111642Y-86224078D01*
X75323764Y-86436200D01*
X75323764Y-86436200D01*
G37*
X75323764Y-86436200D02*
X75184000Y-86436200D01*
X74843794Y-86503871D01*
X74618000Y-86654741D01*
X74618000Y-86311691D01*
X74521327Y-86078302D01*
X74342699Y-85899673D01*
X74109310Y-85803000D01*
X73908152Y-85803000D01*
X74492820Y-85218332D01*
X74492820Y-85568880D01*
X74539797Y-85811003D01*
X74679587Y-86023807D01*
X74890620Y-86166257D01*
X75101228Y-86208492D01*
X75111642Y-86224078D01*
X75323764Y-86436200D01*
G36*
X76735017Y-68446080D02*
X76676800Y-68434500D01*
X75266000Y-68434500D01*
X74950094Y-68497337D01*
X74682283Y-68676283D01*
X74320499Y-69038066D01*
X74271790Y-69038024D01*
X73898600Y-69192223D01*
X73823314Y-69267376D01*
X73761182Y-69241577D01*
X73357390Y-69241224D01*
X72984200Y-69395423D01*
X72698427Y-69680698D01*
X72543577Y-70053618D01*
X72543533Y-70103832D01*
X72224916Y-70422449D01*
X72237440Y-70360000D01*
X72237440Y-69760000D01*
X72217717Y-69658347D01*
X72237440Y-69560000D01*
X72237440Y-68960000D01*
X72217717Y-68858347D01*
X72237440Y-68760000D01*
X72237440Y-68160000D01*
X72217717Y-68058347D01*
X72237440Y-67960000D01*
X72237440Y-67360000D01*
X72190463Y-67117877D01*
X72178152Y-67099136D01*
X72190360Y-67107377D01*
X72440000Y-67157440D01*
X73040000Y-67157440D01*
X73141652Y-67137717D01*
X73240000Y-67157440D01*
X73840000Y-67157440D01*
X73941652Y-67137717D01*
X74040000Y-67157440D01*
X74640000Y-67157440D01*
X74741652Y-67137717D01*
X74840000Y-67157440D01*
X75440000Y-67157440D01*
X75541652Y-67137717D01*
X75640000Y-67157440D01*
X75914500Y-67157440D01*
X75914500Y-67189600D01*
X75977337Y-67505506D01*
X75997735Y-67536033D01*
X75997735Y-67536034D01*
X75997624Y-67663410D01*
X76151823Y-68036600D01*
X76437098Y-68322373D01*
X76735017Y-68446080D01*
X76735017Y-68446080D01*
G37*
X76735017Y-68446080D02*
X76676800Y-68434500D01*
X75266000Y-68434500D01*
X74950094Y-68497337D01*
X74682283Y-68676283D01*
X74320499Y-69038066D01*
X74271790Y-69038024D01*
X73898600Y-69192223D01*
X73823314Y-69267376D01*
X73761182Y-69241577D01*
X73357390Y-69241224D01*
X72984200Y-69395423D01*
X72698427Y-69680698D01*
X72543577Y-70053618D01*
X72543533Y-70103832D01*
X72224916Y-70422449D01*
X72237440Y-70360000D01*
X72237440Y-69760000D01*
X72217717Y-69658347D01*
X72237440Y-69560000D01*
X72237440Y-68960000D01*
X72217717Y-68858347D01*
X72237440Y-68760000D01*
X72237440Y-68160000D01*
X72217717Y-68058347D01*
X72237440Y-67960000D01*
X72237440Y-67360000D01*
X72190463Y-67117877D01*
X72178152Y-67099136D01*
X72190360Y-67107377D01*
X72440000Y-67157440D01*
X73040000Y-67157440D01*
X73141652Y-67137717D01*
X73240000Y-67157440D01*
X73840000Y-67157440D01*
X73941652Y-67137717D01*
X74040000Y-67157440D01*
X74640000Y-67157440D01*
X74741652Y-67137717D01*
X74840000Y-67157440D01*
X75440000Y-67157440D01*
X75541652Y-67137717D01*
X75640000Y-67157440D01*
X75914500Y-67157440D01*
X75914500Y-67189600D01*
X75977337Y-67505506D01*
X75997735Y-67536033D01*
X75997735Y-67536034D01*
X75997624Y-67663410D01*
X76151823Y-68036600D01*
X76437098Y-68322373D01*
X76735017Y-68446080D01*
G36*
X76976230Y-51780440D02*
X76647040Y-51780440D01*
X76526390Y-51901090D01*
X76488290Y-51939190D01*
X76367640Y-52059840D01*
X76367640Y-52389030D01*
X76113640Y-52389030D01*
X76113640Y-52059840D01*
X75954890Y-51901090D01*
X75866569Y-51901090D01*
X75613950Y-51901090D01*
X75380561Y-51997763D01*
X75279600Y-52098724D01*
X75279600Y-52059798D01*
X75120852Y-52059798D01*
X75279600Y-51901050D01*
X75279600Y-51460491D01*
X75182927Y-51227102D01*
X75004299Y-51048473D01*
X74770910Y-50951800D01*
X74555350Y-50951800D01*
X74396600Y-51110550D01*
X74396600Y-52059800D01*
X74416600Y-52059800D01*
X74416600Y-52313800D01*
X74396600Y-52313800D01*
X74396600Y-52333800D01*
X74142600Y-52333800D01*
X74142600Y-52313800D01*
X74122600Y-52313800D01*
X74122600Y-52059800D01*
X74142600Y-52059800D01*
X74142600Y-51110550D01*
X74023401Y-50991351D01*
X74392552Y-50622200D01*
X76756124Y-50622200D01*
X76584963Y-50793362D01*
X76488290Y-51026751D01*
X76488290Y-51367690D01*
X76647040Y-51526440D01*
X76951840Y-51526440D01*
X76951840Y-51653440D01*
X76976230Y-51776057D01*
X76976230Y-51780440D01*
X76976230Y-51780440D01*
G37*
X76976230Y-51780440D02*
X76647040Y-51780440D01*
X76526390Y-51901090D01*
X76488290Y-51939190D01*
X76367640Y-52059840D01*
X76367640Y-52389030D01*
X76113640Y-52389030D01*
X76113640Y-52059840D01*
X75954890Y-51901090D01*
X75866569Y-51901090D01*
X75613950Y-51901090D01*
X75380561Y-51997763D01*
X75279600Y-52098724D01*
X75279600Y-52059798D01*
X75120852Y-52059798D01*
X75279600Y-51901050D01*
X75279600Y-51460491D01*
X75182927Y-51227102D01*
X75004299Y-51048473D01*
X74770910Y-50951800D01*
X74555350Y-50951800D01*
X74396600Y-51110550D01*
X74396600Y-52059800D01*
X74416600Y-52059800D01*
X74416600Y-52313800D01*
X74396600Y-52313800D01*
X74396600Y-52333800D01*
X74142600Y-52333800D01*
X74142600Y-52313800D01*
X74122600Y-52313800D01*
X74122600Y-52059800D01*
X74142600Y-52059800D01*
X74142600Y-51110550D01*
X74023401Y-50991351D01*
X74392552Y-50622200D01*
X76756124Y-50622200D01*
X76584963Y-50793362D01*
X76488290Y-51026751D01*
X76488290Y-51367690D01*
X76647040Y-51526440D01*
X76951840Y-51526440D01*
X76951840Y-51653440D01*
X76976230Y-51776057D01*
X76976230Y-51780440D01*
G36*
X79649566Y-68472600D02*
X77225852Y-68472600D01*
X77587000Y-68323377D01*
X77872773Y-68038102D01*
X78027623Y-67665182D01*
X78027976Y-67261390D01*
X77980057Y-67145419D01*
X78040000Y-67157440D01*
X78640000Y-67157440D01*
X78714600Y-67142965D01*
X78703077Y-67170718D01*
X78702724Y-67574510D01*
X78856923Y-67947700D01*
X79142198Y-68233473D01*
X79515118Y-68388323D01*
X79565333Y-68388366D01*
X79649566Y-68472600D01*
X79649566Y-68472600D01*
G37*
X79649566Y-68472600D02*
X77225852Y-68472600D01*
X77587000Y-68323377D01*
X77872773Y-68038102D01*
X78027623Y-67665182D01*
X78027976Y-67261390D01*
X77980057Y-67145419D01*
X78040000Y-67157440D01*
X78640000Y-67157440D01*
X78714600Y-67142965D01*
X78703077Y-67170718D01*
X78702724Y-67574510D01*
X78856923Y-67947700D01*
X79142198Y-68233473D01*
X79515118Y-68388323D01*
X79565333Y-68388366D01*
X79649566Y-68472600D01*
G36*
X81840190Y-48112237D02*
X81650994Y-48149871D01*
X81362582Y-48342582D01*
X81169871Y-48630994D01*
X81157956Y-48690891D01*
X80496648Y-49352200D01*
X80466222Y-49352200D01*
X80466376Y-49176590D01*
X80323415Y-48830600D01*
X80366310Y-48830600D01*
X80599699Y-48733927D01*
X80778327Y-48555298D01*
X80875000Y-48321909D01*
X80875000Y-47731350D01*
X80716250Y-47572600D01*
X80237440Y-47572600D01*
X80237440Y-47421000D01*
X81817560Y-47421000D01*
X81817560Y-47995600D01*
X81840190Y-48112237D01*
X81840190Y-48112237D01*
G37*
X81840190Y-48112237D02*
X81650994Y-48149871D01*
X81362582Y-48342582D01*
X81169871Y-48630994D01*
X81157956Y-48690891D01*
X80496648Y-49352200D01*
X80466222Y-49352200D01*
X80466376Y-49176590D01*
X80323415Y-48830600D01*
X80366310Y-48830600D01*
X80599699Y-48733927D01*
X80778327Y-48555298D01*
X80875000Y-48321909D01*
X80875000Y-47731350D01*
X80716250Y-47572600D01*
X80237440Y-47572600D01*
X80237440Y-47421000D01*
X81817560Y-47421000D01*
X81817560Y-47995600D01*
X81840190Y-48112237D01*
G36*
X83331537Y-82957440D02*
X83194137Y-83163075D01*
X83134200Y-83464400D01*
X83134200Y-84785200D01*
X83160705Y-84918451D01*
X83160467Y-85191000D01*
X83013890Y-85191000D01*
X82987180Y-85202063D01*
X82987180Y-84468880D01*
X82940203Y-84226757D01*
X82800413Y-84013953D01*
X82589380Y-83871503D01*
X82339740Y-83821440D01*
X81139740Y-83821440D01*
X80897617Y-83868417D01*
X80727400Y-83980231D01*
X80727400Y-82957440D01*
X81040000Y-82957440D01*
X81141652Y-82937717D01*
X81240000Y-82957440D01*
X81840000Y-82957440D01*
X81941652Y-82937717D01*
X82040000Y-82957440D01*
X82640000Y-82957440D01*
X82741652Y-82937717D01*
X82840000Y-82957440D01*
X83331537Y-82957440D01*
X83331537Y-82957440D01*
G37*
X83331537Y-82957440D02*
X83194137Y-83163075D01*
X83134200Y-83464400D01*
X83134200Y-84785200D01*
X83160705Y-84918451D01*
X83160467Y-85191000D01*
X83013890Y-85191000D01*
X82987180Y-85202063D01*
X82987180Y-84468880D01*
X82940203Y-84226757D01*
X82800413Y-84013953D01*
X82589380Y-83871503D01*
X82339740Y-83821440D01*
X81139740Y-83821440D01*
X80897617Y-83868417D01*
X80727400Y-83980231D01*
X80727400Y-82957440D01*
X81040000Y-82957440D01*
X81141652Y-82937717D01*
X81240000Y-82957440D01*
X81840000Y-82957440D01*
X81941652Y-82937717D01*
X82040000Y-82957440D01*
X82640000Y-82957440D01*
X82741652Y-82937717D01*
X82840000Y-82957440D01*
X83331537Y-82957440D01*
G36*
X83967000Y-95631000D02*
X83947000Y-95631000D01*
X83947000Y-95651000D01*
X83693000Y-95651000D01*
X83693000Y-95631000D01*
X83673000Y-95631000D01*
X83673000Y-95377000D01*
X83693000Y-95377000D01*
X83693000Y-95357000D01*
X83947000Y-95357000D01*
X83947000Y-95377000D01*
X83967000Y-95377000D01*
X83967000Y-95631000D01*
X83967000Y-95631000D01*
G37*
X83967000Y-95631000D02*
X83947000Y-95631000D01*
X83947000Y-95651000D01*
X83693000Y-95651000D01*
X83693000Y-95631000D01*
X83673000Y-95631000D01*
X83673000Y-95377000D01*
X83693000Y-95377000D01*
X83693000Y-95357000D01*
X83947000Y-95357000D01*
X83947000Y-95377000D01*
X83967000Y-95377000D01*
X83967000Y-95631000D01*
G36*
X85375891Y-77387002D02*
X85297261Y-77503488D01*
X85255000Y-77545750D01*
X85255000Y-77686310D01*
X85256575Y-77690112D01*
X85242560Y-77760000D01*
X85242560Y-78360000D01*
X85262282Y-78461652D01*
X85242560Y-78560000D01*
X85242560Y-79160000D01*
X85262282Y-79261652D01*
X85242560Y-79360000D01*
X85242560Y-79960000D01*
X85289537Y-80202123D01*
X85301847Y-80220863D01*
X85289640Y-80212623D01*
X85040000Y-80162560D01*
X84440000Y-80162560D01*
X84338347Y-80182282D01*
X84240000Y-80162560D01*
X83640000Y-80162560D01*
X83538347Y-80182282D01*
X83440000Y-80162560D01*
X82840000Y-80162560D01*
X82738347Y-80182282D01*
X82640000Y-80162560D01*
X82040000Y-80162560D01*
X81938347Y-80182282D01*
X81840000Y-80162560D01*
X81240000Y-80162560D01*
X81138347Y-80182282D01*
X81040000Y-80162560D01*
X80440000Y-80162560D01*
X80338347Y-80182282D01*
X80240000Y-80162560D01*
X79640000Y-80162560D01*
X79538347Y-80182282D01*
X79440000Y-80162560D01*
X78840000Y-80162560D01*
X78738347Y-80182282D01*
X78640000Y-80162560D01*
X78040000Y-80162560D01*
X77938347Y-80182282D01*
X77840000Y-80162560D01*
X77328133Y-80162560D01*
X77418023Y-79946082D01*
X77418099Y-79858299D01*
X77418099Y-79858298D01*
X77449786Y-79810875D01*
X77521463Y-79703606D01*
X77521463Y-79703605D01*
X77584300Y-79387700D01*
X77584300Y-78282800D01*
X77584300Y-76770355D01*
X77950410Y-76770676D01*
X78323600Y-76616477D01*
X78562693Y-76377800D01*
X79438564Y-76377800D01*
X79734928Y-76674164D01*
X79860223Y-76977400D01*
X80145498Y-77263173D01*
X80518418Y-77418023D01*
X80922210Y-77418376D01*
X81012424Y-77381100D01*
X85255000Y-77381100D01*
X85255000Y-77387002D01*
X85375891Y-77387002D01*
X85375891Y-77387002D01*
G37*
X85375891Y-77387002D02*
X85297261Y-77503488D01*
X85255000Y-77545750D01*
X85255000Y-77686310D01*
X85256575Y-77690112D01*
X85242560Y-77760000D01*
X85242560Y-78360000D01*
X85262282Y-78461652D01*
X85242560Y-78560000D01*
X85242560Y-79160000D01*
X85262282Y-79261652D01*
X85242560Y-79360000D01*
X85242560Y-79960000D01*
X85289537Y-80202123D01*
X85301847Y-80220863D01*
X85289640Y-80212623D01*
X85040000Y-80162560D01*
X84440000Y-80162560D01*
X84338347Y-80182282D01*
X84240000Y-80162560D01*
X83640000Y-80162560D01*
X83538347Y-80182282D01*
X83440000Y-80162560D01*
X82840000Y-80162560D01*
X82738347Y-80182282D01*
X82640000Y-80162560D01*
X82040000Y-80162560D01*
X81938347Y-80182282D01*
X81840000Y-80162560D01*
X81240000Y-80162560D01*
X81138347Y-80182282D01*
X81040000Y-80162560D01*
X80440000Y-80162560D01*
X80338347Y-80182282D01*
X80240000Y-80162560D01*
X79640000Y-80162560D01*
X79538347Y-80182282D01*
X79440000Y-80162560D01*
X78840000Y-80162560D01*
X78738347Y-80182282D01*
X78640000Y-80162560D01*
X78040000Y-80162560D01*
X77938347Y-80182282D01*
X77840000Y-80162560D01*
X77328133Y-80162560D01*
X77418023Y-79946082D01*
X77418099Y-79858299D01*
X77418099Y-79858298D01*
X77449786Y-79810875D01*
X77521463Y-79703606D01*
X77521463Y-79703605D01*
X77584300Y-79387700D01*
X77584300Y-78282800D01*
X77584300Y-76770355D01*
X77950410Y-76770676D01*
X78323600Y-76616477D01*
X78562693Y-76377800D01*
X79438564Y-76377800D01*
X79734928Y-76674164D01*
X79860223Y-76977400D01*
X80145498Y-77263173D01*
X80518418Y-77418023D01*
X80922210Y-77418376D01*
X81012424Y-77381100D01*
X85255000Y-77381100D01*
X85255000Y-77387002D01*
X85375891Y-77387002D01*
G36*
X85784650Y-67533000D02*
X85647877Y-67559537D01*
X85435073Y-67699327D01*
X85297261Y-67903488D01*
X85255000Y-67945750D01*
X85255000Y-68086310D01*
X85256575Y-68090112D01*
X85242560Y-68160000D01*
X85242560Y-68472600D01*
X84307433Y-68472600D01*
X84606913Y-68173119D01*
X84606917Y-68173117D01*
X84606917Y-68173116D01*
X84732210Y-67985601D01*
X84732211Y-67985600D01*
X84883173Y-67834902D01*
X85038023Y-67461982D01*
X85038289Y-67157440D01*
X85040000Y-67157440D01*
X85282123Y-67110463D01*
X85314983Y-67088877D01*
X85255000Y-67233690D01*
X85255000Y-67374250D01*
X85413750Y-67533000D01*
X85784650Y-67533000D01*
X85784650Y-67533000D01*
G37*
X85784650Y-67533000D02*
X85647877Y-67559537D01*
X85435073Y-67699327D01*
X85297261Y-67903488D01*
X85255000Y-67945750D01*
X85255000Y-68086310D01*
X85256575Y-68090112D01*
X85242560Y-68160000D01*
X85242560Y-68472600D01*
X84307433Y-68472600D01*
X84606913Y-68173119D01*
X84606917Y-68173117D01*
X84606917Y-68173116D01*
X84732210Y-67985601D01*
X84732211Y-67985600D01*
X84883173Y-67834902D01*
X85038023Y-67461982D01*
X85038289Y-67157440D01*
X85040000Y-67157440D01*
X85282123Y-67110463D01*
X85314983Y-67088877D01*
X85255000Y-67233690D01*
X85255000Y-67374250D01*
X85413750Y-67533000D01*
X85784650Y-67533000D01*
G36*
X87323926Y-50272305D02*
X87299800Y-50393600D01*
X87299800Y-57086564D01*
X87052182Y-57334182D01*
X86987800Y-57398563D01*
X86987800Y-54861509D01*
X86987800Y-54420950D01*
X86829050Y-54262200D01*
X86029800Y-54262200D01*
X86029800Y-55211450D01*
X86188550Y-55370200D01*
X86226491Y-55370200D01*
X86479110Y-55370200D01*
X86712499Y-55273527D01*
X86891127Y-55094898D01*
X86987800Y-54861509D01*
X86987800Y-57398563D01*
X86357612Y-58028751D01*
X86332073Y-57989873D01*
X86121040Y-57847423D01*
X85959190Y-57814965D01*
X86066923Y-57794063D01*
X86279727Y-57654273D01*
X86422177Y-57443240D01*
X86472240Y-57193600D01*
X86472240Y-56293600D01*
X86425263Y-56051477D01*
X86285473Y-55838673D01*
X86074440Y-55696223D01*
X85975186Y-55676318D01*
X85952263Y-55561075D01*
X85781576Y-55305624D01*
X85731601Y-55255649D01*
X85775800Y-55211450D01*
X85775800Y-54262200D01*
X85755800Y-54262200D01*
X85755800Y-54008200D01*
X85775800Y-54008200D01*
X85775800Y-53988200D01*
X86029800Y-53988200D01*
X86029800Y-54008200D01*
X86829050Y-54008200D01*
X86987800Y-53849450D01*
X86987800Y-53408891D01*
X86891127Y-53175502D01*
X86749649Y-53034023D01*
X86807727Y-52995873D01*
X86950177Y-52784840D01*
X87000240Y-52535200D01*
X87000240Y-51335200D01*
X86953263Y-51093077D01*
X86837605Y-50917009D01*
X86898957Y-50826120D01*
X86949020Y-50576480D01*
X86949020Y-49953856D01*
X87153782Y-50158618D01*
X87323926Y-50272305D01*
X87323926Y-50272305D01*
G37*
X87323926Y-50272305D02*
X87299800Y-50393600D01*
X87299800Y-57086564D01*
X87052182Y-57334182D01*
X86987800Y-57398563D01*
X86987800Y-54861509D01*
X86987800Y-54420950D01*
X86829050Y-54262200D01*
X86029800Y-54262200D01*
X86029800Y-55211450D01*
X86188550Y-55370200D01*
X86226491Y-55370200D01*
X86479110Y-55370200D01*
X86712499Y-55273527D01*
X86891127Y-55094898D01*
X86987800Y-54861509D01*
X86987800Y-57398563D01*
X86357612Y-58028751D01*
X86332073Y-57989873D01*
X86121040Y-57847423D01*
X85959190Y-57814965D01*
X86066923Y-57794063D01*
X86279727Y-57654273D01*
X86422177Y-57443240D01*
X86472240Y-57193600D01*
X86472240Y-56293600D01*
X86425263Y-56051477D01*
X86285473Y-55838673D01*
X86074440Y-55696223D01*
X85975186Y-55676318D01*
X85952263Y-55561075D01*
X85781576Y-55305624D01*
X85731601Y-55255649D01*
X85775800Y-55211450D01*
X85775800Y-54262200D01*
X85755800Y-54262200D01*
X85755800Y-54008200D01*
X85775800Y-54008200D01*
X85775800Y-53988200D01*
X86029800Y-53988200D01*
X86029800Y-54008200D01*
X86829050Y-54008200D01*
X86987800Y-53849450D01*
X86987800Y-53408891D01*
X86891127Y-53175502D01*
X86749649Y-53034023D01*
X86807727Y-52995873D01*
X86950177Y-52784840D01*
X87000240Y-52535200D01*
X87000240Y-51335200D01*
X86953263Y-51093077D01*
X86837605Y-50917009D01*
X86898957Y-50826120D01*
X86949020Y-50576480D01*
X86949020Y-49953856D01*
X87153782Y-50158618D01*
X87323926Y-50272305D01*
G36*
X87655400Y-66782613D02*
X87516309Y-66725000D01*
X86925750Y-66725000D01*
X86767000Y-66883750D01*
X86767000Y-67512560D01*
X86513000Y-67512560D01*
X86513000Y-66883750D01*
X86354250Y-66725000D01*
X85763691Y-66725000D01*
X85620809Y-66784183D01*
X85637377Y-66759640D01*
X85687440Y-66510000D01*
X85687440Y-65087500D01*
X86665921Y-65087500D01*
X86665624Y-65428210D01*
X86819823Y-65801400D01*
X87105098Y-66087173D01*
X87410245Y-66213881D01*
X87655400Y-66459036D01*
X87655400Y-66782613D01*
X87655400Y-66782613D01*
G37*
X87655400Y-66782613D02*
X87516309Y-66725000D01*
X86925750Y-66725000D01*
X86767000Y-66883750D01*
X86767000Y-67512560D01*
X86513000Y-67512560D01*
X86513000Y-66883750D01*
X86354250Y-66725000D01*
X85763691Y-66725000D01*
X85620809Y-66784183D01*
X85637377Y-66759640D01*
X85687440Y-66510000D01*
X85687440Y-65087500D01*
X86665921Y-65087500D01*
X86665624Y-65428210D01*
X86819823Y-65801400D01*
X87105098Y-66087173D01*
X87410245Y-66213881D01*
X87655400Y-66459036D01*
X87655400Y-66782613D01*
G36*
X89240365Y-86360000D02*
X88925585Y-86570330D01*
X88743659Y-86842600D01*
X87630000Y-86842600D01*
X87328675Y-86902537D01*
X87073224Y-87073224D01*
X85909240Y-88237208D01*
X85909240Y-87726000D01*
X85862263Y-87483877D01*
X85798704Y-87387120D01*
X85800127Y-87385698D01*
X85896800Y-87152309D01*
X85896800Y-86711750D01*
X85738050Y-86553000D01*
X85013800Y-86553000D01*
X85013800Y-86573000D01*
X84759800Y-86573000D01*
X84759800Y-86553000D01*
X84366450Y-86553000D01*
X84035550Y-86553000D01*
X83642200Y-86553000D01*
X83642200Y-86573000D01*
X83388200Y-86573000D01*
X83388200Y-86553000D01*
X82663950Y-86553000D01*
X82505200Y-86711750D01*
X82505200Y-87152309D01*
X82601873Y-87385698D01*
X82603155Y-87386980D01*
X82569391Y-87437000D01*
X82479528Y-87437000D01*
X82368358Y-87270622D01*
X81989145Y-86891409D01*
X81989188Y-86842637D01*
X81823596Y-86441871D01*
X81598437Y-86216320D01*
X82339740Y-86216320D01*
X82542022Y-86177072D01*
X82663950Y-86299000D01*
X83388200Y-86299000D01*
X83388200Y-86279000D01*
X83642200Y-86279000D01*
X83642200Y-86299000D01*
X84035550Y-86299000D01*
X84366450Y-86299000D01*
X84759800Y-86299000D01*
X84759800Y-86279000D01*
X85013800Y-86279000D01*
X85013800Y-86299000D01*
X85738050Y-86299000D01*
X85896800Y-86140250D01*
X85896800Y-85877400D01*
X88743659Y-85877400D01*
X88925585Y-86149670D01*
X89240365Y-86360000D01*
X89240365Y-86360000D01*
G37*
X89240365Y-86360000D02*
X88925585Y-86570330D01*
X88743659Y-86842600D01*
X87630000Y-86842600D01*
X87328675Y-86902537D01*
X87073224Y-87073224D01*
X85909240Y-88237208D01*
X85909240Y-87726000D01*
X85862263Y-87483877D01*
X85798704Y-87387120D01*
X85800127Y-87385698D01*
X85896800Y-87152309D01*
X85896800Y-86711750D01*
X85738050Y-86553000D01*
X85013800Y-86553000D01*
X85013800Y-86573000D01*
X84759800Y-86573000D01*
X84759800Y-86553000D01*
X84366450Y-86553000D01*
X84035550Y-86553000D01*
X83642200Y-86553000D01*
X83642200Y-86573000D01*
X83388200Y-86573000D01*
X83388200Y-86553000D01*
X82663950Y-86553000D01*
X82505200Y-86711750D01*
X82505200Y-87152309D01*
X82601873Y-87385698D01*
X82603155Y-87386980D01*
X82569391Y-87437000D01*
X82479528Y-87437000D01*
X82368358Y-87270622D01*
X81989145Y-86891409D01*
X81989188Y-86842637D01*
X81823596Y-86441871D01*
X81598437Y-86216320D01*
X82339740Y-86216320D01*
X82542022Y-86177072D01*
X82663950Y-86299000D01*
X83388200Y-86299000D01*
X83388200Y-86279000D01*
X83642200Y-86279000D01*
X83642200Y-86299000D01*
X84035550Y-86299000D01*
X84366450Y-86299000D01*
X84759800Y-86299000D01*
X84759800Y-86279000D01*
X85013800Y-86279000D01*
X85013800Y-86299000D01*
X85738050Y-86299000D01*
X85896800Y-86140250D01*
X85896800Y-85877400D01*
X88743659Y-85877400D01*
X88925585Y-86149670D01*
X89240365Y-86360000D01*
G36*
X90317000Y-47117000D02*
X90297000Y-47117000D01*
X90297000Y-47137000D01*
X90043000Y-47137000D01*
X90043000Y-47117000D01*
X88683783Y-47117000D01*
X88562642Y-47349026D01*
X88565291Y-47364791D01*
X88819268Y-47892036D01*
X89235069Y-48263539D01*
X88925585Y-48470330D01*
X88811546Y-48641000D01*
X88150636Y-48641000D01*
X87560118Y-48050482D01*
X87271706Y-47857771D01*
X86931500Y-47790100D01*
X86709968Y-47790100D01*
X86551220Y-47682943D01*
X86301580Y-47632880D01*
X85504020Y-47632880D01*
X85312440Y-47670050D01*
X85312440Y-45495600D01*
X85265463Y-45253477D01*
X85161324Y-45094945D01*
X85262377Y-44945240D01*
X85312440Y-44695600D01*
X85312440Y-42550753D01*
X85352138Y-42542857D01*
X85574368Y-42394368D01*
X86008736Y-41960000D01*
X88433639Y-41960000D01*
X88327200Y-42003980D01*
X87726091Y-42604041D01*
X87400372Y-43388459D01*
X87399630Y-44237815D01*
X87723980Y-45022800D01*
X88324041Y-45623909D01*
X89016730Y-45911538D01*
X88819268Y-46087964D01*
X88565291Y-46615209D01*
X88562642Y-46630974D01*
X88683783Y-46863000D01*
X90043000Y-46863000D01*
X90043000Y-46843000D01*
X90297000Y-46843000D01*
X90297000Y-46863000D01*
X90317000Y-46863000D01*
X90317000Y-47117000D01*
X90317000Y-47117000D01*
G37*
X90317000Y-47117000D02*
X90297000Y-47117000D01*
X90297000Y-47137000D01*
X90043000Y-47137000D01*
X90043000Y-47117000D01*
X88683783Y-47117000D01*
X88562642Y-47349026D01*
X88565291Y-47364791D01*
X88819268Y-47892036D01*
X89235069Y-48263539D01*
X88925585Y-48470330D01*
X88811546Y-48641000D01*
X88150636Y-48641000D01*
X87560118Y-48050482D01*
X87271706Y-47857771D01*
X86931500Y-47790100D01*
X86709968Y-47790100D01*
X86551220Y-47682943D01*
X86301580Y-47632880D01*
X85504020Y-47632880D01*
X85312440Y-47670050D01*
X85312440Y-45495600D01*
X85265463Y-45253477D01*
X85161324Y-45094945D01*
X85262377Y-44945240D01*
X85312440Y-44695600D01*
X85312440Y-42550753D01*
X85352138Y-42542857D01*
X85574368Y-42394368D01*
X86008736Y-41960000D01*
X88433639Y-41960000D01*
X88327200Y-42003980D01*
X87726091Y-42604041D01*
X87400372Y-43388459D01*
X87399630Y-44237815D01*
X87723980Y-45022800D01*
X88324041Y-45623909D01*
X89016730Y-45911538D01*
X88819268Y-46087964D01*
X88565291Y-46615209D01*
X88562642Y-46630974D01*
X88683783Y-46863000D01*
X90043000Y-46863000D01*
X90043000Y-46843000D01*
X90297000Y-46843000D01*
X90297000Y-46863000D01*
X90317000Y-46863000D01*
X90317000Y-47117000D01*
M02*
