G04 #@! TF.FileFunction,Legend,Bot*
%FSLAX46Y46*%
G04 Gerber Fmt 4.6, Leading zero omitted, Abs format (unit mm)*
G04 Created by KiCad (PCBNEW (2015-01-16 BZR 5376)-product) date 01-Oct-16 1:27:22 PM*
%MOMM*%
G01*
G04 APERTURE LIST*
%ADD10C,0.150000*%
%ADD11C,0.200000*%
%ADD12C,0.375000*%
%ADD13C,0.100000*%
%ADD14C,0.300000*%
%ADD15C,0.444500*%
%ADD16C,0.002540*%
G04 APERTURE END LIST*
D10*
D11*
X74295000Y-52705000D02*
X73660000Y-52070000D01*
X74295000Y-61595000D02*
X74295000Y-52705000D01*
X73660000Y-62230000D02*
X74295000Y-61595000D01*
D12*
X73703571Y-51793572D02*
X73632143Y-51631072D01*
X73560714Y-51554286D01*
X73417857Y-51486429D01*
X72989286Y-51540000D01*
X72846429Y-51643571D01*
X72775000Y-51738215D01*
X72703571Y-51918572D01*
X72703571Y-52175715D01*
X72775000Y-52338215D01*
X72846429Y-52415000D01*
X72989286Y-52482857D01*
X73417857Y-52429286D01*
X73560714Y-52325715D01*
X73632143Y-52231072D01*
X73703571Y-52050715D01*
X73703571Y-51793572D01*
X72703571Y-53290000D02*
X73703571Y-53165000D01*
X72846429Y-53272142D02*
X72775000Y-53366786D01*
X72703571Y-53547143D01*
X72703571Y-53804286D01*
X72775000Y-53966786D01*
X72917857Y-54034643D01*
X73703571Y-53936429D01*
X73632143Y-55488214D02*
X73703571Y-55307857D01*
X73703571Y-54965000D01*
X73632143Y-54802499D01*
X73489286Y-54734642D01*
X72917857Y-54806071D01*
X72775000Y-54909642D01*
X72703571Y-55090000D01*
X72703571Y-55432857D01*
X72775000Y-55595357D01*
X72917857Y-55663214D01*
X73060714Y-55645357D01*
X73203571Y-54770357D01*
X73703571Y-56336428D02*
X72203571Y-56523928D01*
X73275000Y-56989999D01*
X72203571Y-57723928D01*
X73703571Y-57536428D01*
X73703571Y-58393571D02*
X72703571Y-58518571D01*
X72203571Y-58581071D02*
X72275000Y-58486428D01*
X72346429Y-58563213D01*
X72275000Y-58657857D01*
X72203571Y-58581071D01*
X72346429Y-58563213D01*
X73632143Y-60031071D02*
X73703571Y-59850714D01*
X73703571Y-59507857D01*
X73632143Y-59345357D01*
X73560714Y-59268571D01*
X73417857Y-59200714D01*
X72989286Y-59254285D01*
X72846429Y-59357856D01*
X72775000Y-59452500D01*
X72703571Y-59632857D01*
X72703571Y-59975714D01*
X72775000Y-60138214D01*
X73703571Y-60793571D02*
X72703571Y-60918571D01*
X72989286Y-60882856D02*
X72846429Y-60986428D01*
X72775000Y-61081071D01*
X72703571Y-61261429D01*
X72703571Y-61432857D01*
X73703571Y-62165000D02*
X73632143Y-62002500D01*
X73560714Y-61925714D01*
X73417857Y-61857857D01*
X72989286Y-61911428D01*
X72846429Y-62014999D01*
X72775000Y-62109643D01*
X72703571Y-62290000D01*
X72703571Y-62547143D01*
X72775000Y-62709643D01*
X72846429Y-62786428D01*
X72989286Y-62854285D01*
X73417857Y-62800714D01*
X73560714Y-62697143D01*
X73632143Y-62602500D01*
X73703571Y-62422143D01*
X73703571Y-62165000D01*
X73275000Y-66247143D02*
X73275000Y-67104286D01*
X73703571Y-66022144D02*
X72203571Y-66809644D01*
X73703571Y-67222144D01*
X72703571Y-67690001D02*
X72703571Y-68375715D01*
X72203571Y-68009643D02*
X73489286Y-67848928D01*
X73632143Y-67916786D01*
X73703571Y-68079286D01*
X73703571Y-68250715D01*
X73703571Y-68850714D02*
X72703571Y-68975714D01*
X72846429Y-68957856D02*
X72775000Y-69052500D01*
X72703571Y-69232857D01*
X72703571Y-69490000D01*
X72775000Y-69652500D01*
X72917857Y-69720357D01*
X73703571Y-69622143D01*
X72917857Y-69720357D02*
X72775000Y-69823928D01*
X72703571Y-70004286D01*
X72703571Y-70261429D01*
X72775000Y-70423928D01*
X72917857Y-70491786D01*
X73703571Y-70393572D01*
X73632143Y-71945357D02*
X73703571Y-71765000D01*
X73703571Y-71422143D01*
X73632143Y-71259642D01*
X73489286Y-71191785D01*
X72917857Y-71263214D01*
X72775000Y-71366785D01*
X72703571Y-71547143D01*
X72703571Y-71890000D01*
X72775000Y-72052500D01*
X72917857Y-72120357D01*
X73060714Y-72102500D01*
X73203571Y-71227500D01*
X72703571Y-73690000D02*
X73917857Y-73538214D01*
X74060714Y-73434643D01*
X74132143Y-73339999D01*
X74203571Y-73159643D01*
X74203571Y-72902500D01*
X74132143Y-72739999D01*
X73632143Y-73573928D02*
X73703571Y-73393571D01*
X73703571Y-73050714D01*
X73632143Y-72888214D01*
X73560714Y-72811428D01*
X73417857Y-72743571D01*
X72989286Y-72797142D01*
X72846429Y-72900713D01*
X72775000Y-72995357D01*
X72703571Y-73175714D01*
X72703571Y-73518571D01*
X72775000Y-73681071D01*
X73703571Y-75193571D02*
X72917857Y-75291785D01*
X72775000Y-75223928D01*
X72703571Y-75061428D01*
X72703571Y-74718571D01*
X72775000Y-74538213D01*
X73632143Y-75202499D02*
X73703571Y-75022142D01*
X73703571Y-74593571D01*
X73632143Y-74431070D01*
X73489286Y-74363213D01*
X73346429Y-74381070D01*
X73203571Y-74484642D01*
X73132143Y-74664999D01*
X73132143Y-75093570D01*
X73060714Y-75273928D01*
X73703571Y-76993571D02*
X73703571Y-75964999D01*
X73703571Y-76479285D02*
X72203571Y-76666785D01*
X72417857Y-76468570D01*
X72560714Y-76279285D01*
X72632143Y-76098927D01*
X72346429Y-77848927D02*
X72275000Y-77943570D01*
X72203571Y-78123928D01*
X72203571Y-78552499D01*
X72275000Y-78714999D01*
X72346429Y-78791784D01*
X72489286Y-78859642D01*
X72632143Y-78841785D01*
X72846429Y-78729284D01*
X73703571Y-77593571D01*
X73703571Y-78707857D01*
X72846429Y-79843570D02*
X72775000Y-79681071D01*
X72703571Y-79604285D01*
X72560714Y-79536428D01*
X72489286Y-79545356D01*
X72346429Y-79648927D01*
X72275000Y-79743571D01*
X72203571Y-79923928D01*
X72203571Y-80266785D01*
X72275000Y-80429285D01*
X72346429Y-80506070D01*
X72489286Y-80573928D01*
X72560714Y-80565000D01*
X72703571Y-80461428D01*
X72775000Y-80366785D01*
X72846429Y-80186427D01*
X72846429Y-79843570D01*
X72917857Y-79663214D01*
X72989286Y-79568570D01*
X73132143Y-79464999D01*
X73417857Y-79429285D01*
X73560714Y-79497142D01*
X73632143Y-79573928D01*
X73703571Y-79736428D01*
X73703571Y-80079285D01*
X73632143Y-80259642D01*
X73560714Y-80354285D01*
X73417857Y-80457857D01*
X73132143Y-80493571D01*
X72989286Y-80425713D01*
X72917857Y-80348928D01*
X72846429Y-80186427D01*
D13*
X69850000Y-103505000D02*
X68580000Y-103505000D01*
X88900000Y-103505000D02*
X87630000Y-103505000D01*
X86995000Y-104140000D02*
X87630000Y-103505000D01*
X70485000Y-104140000D02*
X86995000Y-104140000D01*
X69850000Y-103505000D02*
X70485000Y-104140000D01*
X82296000Y-41910000D02*
X82550000Y-41910000D01*
X75184000Y-41910000D02*
X74930000Y-41910000D01*
X85090000Y-41910000D02*
X82550000Y-41910000D01*
X85725000Y-41275000D02*
X85090000Y-41910000D01*
X91440000Y-41275000D02*
X85725000Y-41275000D01*
X91440000Y-41910000D02*
X91440000Y-41275000D01*
X72390000Y-41910000D02*
X74930000Y-41910000D01*
X71755000Y-41275000D02*
X72390000Y-41910000D01*
X66040000Y-41275000D02*
X71755000Y-41275000D01*
X66040000Y-41910000D02*
X66040000Y-41275000D01*
D14*
X88054571Y-49836000D02*
X86554571Y-49836000D01*
X86554571Y-50407428D01*
X86626000Y-50550286D01*
X86697429Y-50621714D01*
X86840286Y-50693143D01*
X87054571Y-50693143D01*
X87197429Y-50621714D01*
X87268857Y-50550286D01*
X87340286Y-50407428D01*
X87340286Y-49836000D01*
X86554571Y-51193143D02*
X88054571Y-51550286D01*
X86983143Y-51836000D01*
X88054571Y-52121714D01*
X86554571Y-52478857D01*
X88054571Y-53050286D02*
X86554571Y-53050286D01*
X87626000Y-53550286D01*
X86554571Y-54050286D01*
X88054571Y-54050286D01*
X86554571Y-56121715D02*
X86911714Y-56121715D01*
X86768857Y-55764572D02*
X86911714Y-56121715D01*
X86768857Y-56478857D01*
X87197429Y-55907429D02*
X86911714Y-56121715D01*
X87197429Y-56336000D01*
D15*
X78740000Y-60552540D02*
X78740000Y-61145207D01*
X79671333Y-61282790D02*
X79671333Y-60436123D01*
X77893333Y-60658373D01*
X77893333Y-61505040D01*
X79671333Y-61875457D02*
X78486000Y-62954957D01*
X78486000Y-62023624D02*
X79671333Y-62806790D01*
X78486000Y-63632290D02*
X80264000Y-63410040D01*
X78570667Y-63621707D02*
X78486000Y-63801624D01*
X78486000Y-64140290D01*
X78570667Y-64299041D01*
X78655333Y-64373123D01*
X78824667Y-64436624D01*
X79332667Y-64373124D01*
X79502000Y-64267290D01*
X79586667Y-64172041D01*
X79671333Y-63992123D01*
X79671333Y-63653457D01*
X79586667Y-63494707D01*
X79671333Y-65346790D02*
X79586667Y-65188041D01*
X79417333Y-65124540D01*
X77893333Y-65315040D01*
X79671333Y-66278123D02*
X79586667Y-66119374D01*
X79502000Y-66045290D01*
X79332667Y-65981791D01*
X78824667Y-66045291D01*
X78655333Y-66151123D01*
X78570667Y-66246374D01*
X78486000Y-66426290D01*
X78486000Y-66680290D01*
X78570667Y-66839041D01*
X78655333Y-66913123D01*
X78824667Y-66976624D01*
X79332667Y-66913124D01*
X79502000Y-66807290D01*
X79586667Y-66712041D01*
X79671333Y-66532123D01*
X79671333Y-66278123D01*
X79671333Y-67632790D02*
X78486000Y-67780957D01*
X78824667Y-67738624D02*
X78655333Y-67844457D01*
X78570667Y-67939708D01*
X78486000Y-68119624D01*
X78486000Y-68288957D01*
X79586667Y-69421375D02*
X79671333Y-69241457D01*
X79671333Y-68902791D01*
X79586667Y-68744041D01*
X79417333Y-68680541D01*
X78740000Y-68765208D01*
X78570667Y-68871041D01*
X78486000Y-69050958D01*
X78486000Y-69389624D01*
X78570667Y-69548375D01*
X78740000Y-69611874D01*
X78909333Y-69590707D01*
X79078667Y-68722875D01*
X78740000Y-70373874D02*
X78740000Y-70966541D01*
X79671333Y-71104124D02*
X79671333Y-70257457D01*
X77893333Y-70479707D01*
X77893333Y-71326374D01*
X79671333Y-71866124D02*
X78486000Y-72014291D01*
X78655333Y-71993124D02*
X78570667Y-72088375D01*
X78486000Y-72268291D01*
X78486000Y-72522291D01*
X78570667Y-72681042D01*
X78740000Y-72744541D01*
X79671333Y-72628124D01*
X78740000Y-72744541D02*
X78570667Y-72850375D01*
X78486000Y-73030291D01*
X78486000Y-73284291D01*
X78570667Y-73443042D01*
X78740000Y-73506541D01*
X79671333Y-73390124D01*
X79671333Y-74236791D02*
X77893333Y-74459041D01*
X78570667Y-74374375D02*
X78486000Y-74554292D01*
X78486000Y-74892958D01*
X78570667Y-75051709D01*
X78655333Y-75125791D01*
X78824667Y-75189292D01*
X79332667Y-75125792D01*
X79502000Y-75019958D01*
X79586667Y-74924709D01*
X79671333Y-74744791D01*
X79671333Y-74406125D01*
X79586667Y-74247375D01*
X79586667Y-76533376D02*
X79671333Y-76353458D01*
X79671333Y-76014792D01*
X79586667Y-75856042D01*
X79417333Y-75792542D01*
X78740000Y-75877209D01*
X78570667Y-75983042D01*
X78486000Y-76162959D01*
X78486000Y-76501625D01*
X78570667Y-76660376D01*
X78740000Y-76723875D01*
X78909333Y-76702708D01*
X79078667Y-75834876D01*
X79671333Y-78131458D02*
X77893333Y-78353708D01*
X79586667Y-78142042D02*
X79671333Y-77962125D01*
X79671333Y-77623458D01*
X79586667Y-77464709D01*
X79502000Y-77390625D01*
X79332667Y-77327126D01*
X78824667Y-77390626D01*
X78655333Y-77496458D01*
X78570667Y-77591709D01*
X78486000Y-77771625D01*
X78486000Y-78110292D01*
X78570667Y-78269042D01*
X79671333Y-79740125D02*
X77893333Y-79962375D01*
X79586667Y-79750709D02*
X79671333Y-79570792D01*
X79671333Y-79232125D01*
X79586667Y-79073376D01*
X79502000Y-78999292D01*
X79332667Y-78935793D01*
X78824667Y-78999293D01*
X78655333Y-79105125D01*
X78570667Y-79200376D01*
X78486000Y-79380292D01*
X78486000Y-79718959D01*
X78570667Y-79877709D01*
X79586667Y-81274710D02*
X79671333Y-81094792D01*
X79671333Y-80756126D01*
X79586667Y-80597376D01*
X79417333Y-80533876D01*
X78740000Y-80618543D01*
X78570667Y-80724376D01*
X78486000Y-80904293D01*
X78486000Y-81242959D01*
X78570667Y-81401710D01*
X78740000Y-81465209D01*
X78909333Y-81444042D01*
X79078667Y-80576210D01*
X79671333Y-82872792D02*
X77893333Y-83095042D01*
X79586667Y-82883376D02*
X79671333Y-82703459D01*
X79671333Y-82364792D01*
X79586667Y-82206043D01*
X79502000Y-82131959D01*
X79332667Y-82068460D01*
X78824667Y-82131960D01*
X78655333Y-82237792D01*
X78570667Y-82333043D01*
X78486000Y-82512959D01*
X78486000Y-82851626D01*
X78570667Y-83010376D01*
X79502000Y-83740626D02*
X79586667Y-83814710D01*
X79671333Y-83719459D01*
X79586667Y-83645377D01*
X79502000Y-83740626D01*
X79671333Y-83719459D01*
X79586667Y-85338710D02*
X79671333Y-85158793D01*
X79671333Y-84820126D01*
X79586667Y-84661377D01*
X79502000Y-84587293D01*
X79332667Y-84523794D01*
X78824667Y-84587294D01*
X78655333Y-84693126D01*
X78570667Y-84788377D01*
X78486000Y-84968293D01*
X78486000Y-85306960D01*
X78570667Y-85465710D01*
X79671333Y-86344126D02*
X79586667Y-86185377D01*
X79502000Y-86111293D01*
X79332667Y-86047794D01*
X78824667Y-86111294D01*
X78655333Y-86217126D01*
X78570667Y-86312377D01*
X78486000Y-86492293D01*
X78486000Y-86746293D01*
X78570667Y-86905044D01*
X78655333Y-86979126D01*
X78824667Y-87042627D01*
X79332667Y-86979127D01*
X79502000Y-86873293D01*
X79586667Y-86778044D01*
X79671333Y-86598126D01*
X79671333Y-86344126D01*
X79671333Y-87698793D02*
X78486000Y-87846960D01*
X78655333Y-87825793D02*
X78570667Y-87921044D01*
X78486000Y-88100960D01*
X78486000Y-88354960D01*
X78570667Y-88513711D01*
X78740000Y-88577210D01*
X79671333Y-88460793D01*
X78740000Y-88577210D02*
X78570667Y-88683044D01*
X78486000Y-88862960D01*
X78486000Y-89116960D01*
X78570667Y-89275711D01*
X78740000Y-89339210D01*
X79671333Y-89222793D01*
D13*
X82296000Y-46736000D02*
X82296000Y-41910000D01*
X75184000Y-46736000D02*
X82296000Y-46736000D01*
X75184000Y-41910000D02*
X75184000Y-46736000D01*
X66040000Y-100965000D02*
X66040000Y-100330000D01*
X91440000Y-100330000D02*
X91440000Y-100965000D01*
X66040000Y-100965000D02*
G75*
G03X68580000Y-103505000I2540000J0D01*
G01*
X88900000Y-103505000D02*
G75*
G03X91440000Y-100965000I0J2540000D01*
G01*
X91440000Y-41910000D02*
X91440000Y-45720000D01*
X66040000Y-45720000D02*
X66040000Y-41910000D01*
X91440000Y-100330000D02*
X91440000Y-96520000D01*
X66040000Y-96520000D02*
X66040000Y-100330000D01*
X66040000Y-46990000D02*
X66040000Y-45720000D01*
X91440000Y-46990000D02*
X91440000Y-45720000D01*
X91440000Y-96520000D02*
X91440000Y-46990000D01*
X66040000Y-46990000D02*
X66040000Y-96520000D01*
D16*
G36*
X78676500Y-59984640D02*
X79004160Y-59977020D01*
X79237840Y-59961780D01*
X79418180Y-59926220D01*
X79583280Y-59870340D01*
X79677260Y-59827160D01*
X80177640Y-59527440D01*
X80266540Y-59443620D01*
X77515720Y-59443620D01*
X77515720Y-59115960D01*
X77518260Y-58922920D01*
X77543660Y-58828940D01*
X77609700Y-58793380D01*
X77698600Y-58788300D01*
X77861160Y-58806080D01*
X77939900Y-58874660D01*
X77957680Y-59024520D01*
X77952600Y-59141360D01*
X77932280Y-59309000D01*
X77878940Y-59390280D01*
X77762100Y-59418220D01*
X77724000Y-59423300D01*
X77515720Y-59443620D01*
X80266540Y-59443620D01*
X80276700Y-59436000D01*
X79707740Y-59436000D01*
X79484220Y-59436000D01*
X79258160Y-59436000D01*
X79128620Y-59436000D01*
X78902560Y-59436000D01*
X78676500Y-59436000D01*
X78546960Y-59436000D01*
X78323440Y-59436000D01*
X78097380Y-59436000D01*
X78097380Y-59113420D01*
X78097380Y-58788300D01*
X78323440Y-58788300D01*
X78546960Y-58788300D01*
X78546960Y-59113420D01*
X78546960Y-59436000D01*
X78676500Y-59436000D01*
X78676500Y-59113420D01*
X78676500Y-58788300D01*
X78902560Y-58788300D01*
X79128620Y-58788300D01*
X79128620Y-59113420D01*
X79128620Y-59436000D01*
X79258160Y-59436000D01*
X79258160Y-59113420D01*
X79258160Y-58788300D01*
X79484220Y-58788300D01*
X79707740Y-58788300D01*
X79707740Y-59113420D01*
X79707740Y-59436000D01*
X80276700Y-59436000D01*
X80576420Y-59154060D01*
X80863440Y-58724800D01*
X80065880Y-58724800D01*
X77452220Y-58724800D01*
X77124560Y-58724800D01*
X76796900Y-58724800D01*
X76817220Y-58516520D01*
X76837540Y-58389520D01*
X76893420Y-58323480D01*
X77017880Y-58295540D01*
X77144880Y-58285380D01*
X77452220Y-58267600D01*
X77452220Y-58496200D01*
X77452220Y-58724800D01*
X80065880Y-58724800D01*
X79885540Y-58719720D01*
X79801720Y-58686700D01*
X79773780Y-58600340D01*
X79773780Y-58498740D01*
X79778860Y-58359040D01*
X79819500Y-58295540D01*
X79933800Y-58275220D01*
X80065880Y-58275220D01*
X80243680Y-58277760D01*
X80324960Y-58310780D01*
X80352900Y-58397140D01*
X80355440Y-58498740D01*
X80347820Y-58638440D01*
X80307180Y-58704480D01*
X80192880Y-58722260D01*
X80065880Y-58724800D01*
X80863440Y-58724800D01*
X80886300Y-58694320D01*
X81064100Y-58293000D01*
X81107280Y-58145680D01*
X80065880Y-58145680D01*
X77452220Y-58145680D01*
X77129640Y-58145680D01*
X76804520Y-58145680D01*
X76804520Y-57919620D01*
X76804520Y-57693560D01*
X77129640Y-57693560D01*
X77452220Y-57693560D01*
X77452220Y-57919620D01*
X77452220Y-58145680D01*
X80065880Y-58145680D01*
X79885540Y-58138060D01*
X79801720Y-58105040D01*
X79773780Y-58018680D01*
X79773780Y-57919620D01*
X79778860Y-57779920D01*
X79819500Y-57713880D01*
X79933800Y-57693560D01*
X80065880Y-57693560D01*
X80243680Y-57698640D01*
X80324960Y-57731660D01*
X80352900Y-57818020D01*
X80355440Y-57919620D01*
X80347820Y-58056780D01*
X80307180Y-58122820D01*
X80192880Y-58143140D01*
X80065880Y-58145680D01*
X81107280Y-58145680D01*
X81137760Y-58056780D01*
X81178400Y-57845960D01*
X81188560Y-57599580D01*
X81186020Y-57548780D01*
X80065880Y-57548780D01*
X79885540Y-57543700D01*
X79844900Y-57531000D01*
X77238860Y-57531000D01*
X77129640Y-57531000D01*
X76949300Y-57525920D01*
X76860400Y-57490360D01*
X76827380Y-57401460D01*
X76817220Y-57322720D01*
X76796900Y-57114440D01*
X77129640Y-57114440D01*
X77459840Y-57114440D01*
X77436980Y-57322720D01*
X77419200Y-57452260D01*
X77365860Y-57510680D01*
X77238860Y-57531000D01*
X79844900Y-57531000D01*
X79801720Y-57515760D01*
X79773780Y-57429400D01*
X79773780Y-57332880D01*
X79778860Y-57195720D01*
X79822040Y-57132220D01*
X79936340Y-57114440D01*
X80065880Y-57114440D01*
X80243680Y-57116980D01*
X80324960Y-57150000D01*
X80352900Y-57236360D01*
X80355440Y-57327800D01*
X80347820Y-57459880D01*
X80302100Y-57523380D01*
X80187800Y-57543700D01*
X80065880Y-57548780D01*
X81186020Y-57548780D01*
X81180940Y-57317640D01*
X81158080Y-56997600D01*
X81145380Y-56936640D01*
X80195420Y-56936640D01*
X80162400Y-56934100D01*
X76885800Y-56934100D01*
X76847700Y-56890920D01*
X76819760Y-56761380D01*
X76819760Y-56746140D01*
X76796900Y-56537860D01*
X77170280Y-56520080D01*
X77543660Y-56499760D01*
X77541120Y-56466740D01*
X77226160Y-56466740D01*
X76967080Y-56466740D01*
X76934060Y-56436260D01*
X76967080Y-56403240D01*
X76997560Y-56436260D01*
X76967080Y-56466740D01*
X77226160Y-56466740D01*
X77193140Y-56436260D01*
X77226160Y-56403240D01*
X77259180Y-56436260D01*
X77226160Y-56466740D01*
X77541120Y-56466740D01*
X77523340Y-56161940D01*
X77515720Y-55963820D01*
X77533500Y-55862220D01*
X77591920Y-55826660D01*
X77698600Y-55821580D01*
X77823060Y-55831740D01*
X77884020Y-55887620D01*
X77909420Y-56024780D01*
X77914500Y-56095900D01*
X77924660Y-56306720D01*
X77909420Y-56418480D01*
X77856080Y-56461660D01*
X77802740Y-56466740D01*
X77721460Y-56494680D01*
X77716380Y-56515000D01*
X77711300Y-56664860D01*
X77630020Y-56715660D01*
X77579220Y-56705500D01*
X77477620Y-56708040D01*
X77452220Y-56796940D01*
X77426820Y-56878220D01*
X77332840Y-56911240D01*
X77193140Y-56918860D01*
X77015340Y-56921400D01*
X76901040Y-56931560D01*
X76885800Y-56934100D01*
X80162400Y-56934100D01*
X80065880Y-56929020D01*
X79885540Y-56908700D01*
X79799180Y-56865520D01*
X79773780Y-56779160D01*
X79773780Y-56718200D01*
X79781400Y-56603900D01*
X79832200Y-56550560D01*
X79959200Y-56532780D01*
X80065880Y-56532780D01*
X80243680Y-56535320D01*
X80324960Y-56568340D01*
X80352900Y-56654700D01*
X80355440Y-56741060D01*
X80347820Y-56868060D01*
X80307180Y-56926480D01*
X80195420Y-56936640D01*
X81145380Y-56936640D01*
X81117440Y-56756300D01*
X81046320Y-56535320D01*
X81015840Y-56474360D01*
X78097380Y-56474360D01*
X78097380Y-56149240D01*
X78099920Y-55956200D01*
X78125320Y-55859680D01*
X78191360Y-55826660D01*
X78282800Y-55821580D01*
X78414880Y-55839360D01*
X78483460Y-55913020D01*
X78511400Y-56065420D01*
X78508860Y-56235600D01*
X78486000Y-56377840D01*
X78407260Y-56438800D01*
X78300580Y-56454040D01*
X78097380Y-56474360D01*
X81015840Y-56474360D01*
X81000600Y-56436260D01*
X79484220Y-56436260D01*
X78902560Y-56436260D01*
X78785720Y-56426100D01*
X78724760Y-56377840D01*
X78699360Y-56253380D01*
X78689200Y-56128920D01*
X78668880Y-55821580D01*
X78902560Y-55821580D01*
X79136240Y-55821580D01*
X79115920Y-56128920D01*
X79098140Y-56314340D01*
X79062580Y-56403240D01*
X78983840Y-56431180D01*
X78902560Y-56436260D01*
X79484220Y-56436260D01*
X79364840Y-56426100D01*
X79306420Y-56377840D01*
X79278480Y-56253380D01*
X79268320Y-56128920D01*
X79250540Y-55821580D01*
X79484220Y-55821580D01*
X79715360Y-55821580D01*
X79697580Y-56128920D01*
X79679800Y-56314340D01*
X79641700Y-56403240D01*
X79562960Y-56431180D01*
X79484220Y-56436260D01*
X81000600Y-56436260D01*
X80949800Y-56324500D01*
X80827880Y-56098440D01*
X80708500Y-55910480D01*
X80617060Y-55796180D01*
X80551020Y-55725060D01*
X80535780Y-55659020D01*
X80576420Y-55565040D01*
X77884020Y-55565040D01*
X77533500Y-55521860D01*
X77200760Y-55377080D01*
X76908660Y-55130700D01*
X76799440Y-54993540D01*
X76713080Y-54843680D01*
X76664820Y-54681120D01*
X76647040Y-54460140D01*
X76644500Y-54300120D01*
X76649580Y-54046120D01*
X76672440Y-53873400D01*
X76730860Y-53738780D01*
X76832460Y-53599080D01*
X76842620Y-53586380D01*
X77063600Y-53367940D01*
X77337920Y-53190140D01*
X77617320Y-53075840D01*
X77802740Y-53047900D01*
X78064360Y-53075840D01*
X78323440Y-53144420D01*
X78526640Y-53243480D01*
X78585060Y-53289200D01*
X78666340Y-53355240D01*
X78732380Y-53329840D01*
X78806040Y-53235860D01*
X78897480Y-53134260D01*
X79062580Y-52966620D01*
X79275940Y-52758340D01*
X79519780Y-52529740D01*
X79550260Y-52501800D01*
X80177640Y-51925220D01*
X80302100Y-52080160D01*
X80429100Y-52235100D01*
X79989680Y-52659280D01*
X79748380Y-52885340D01*
X79504540Y-53113940D01*
X79291180Y-53304440D01*
X79240380Y-53347620D01*
X78933040Y-53611780D01*
X79032100Y-53842920D01*
X79121000Y-54218840D01*
X79085440Y-54602380D01*
X79029560Y-54775100D01*
X78826360Y-55112920D01*
X78552040Y-55356760D01*
X78232000Y-55509160D01*
X77884020Y-55565040D01*
X80576420Y-55565040D01*
X80578960Y-55562500D01*
X80690720Y-55397400D01*
X80705960Y-55382160D01*
X80967580Y-54909720D01*
X81132680Y-54386480D01*
X81198720Y-53842920D01*
X81160620Y-53312060D01*
X81051400Y-52918360D01*
X80792320Y-52405280D01*
X80444340Y-51973480D01*
X80020160Y-51638200D01*
X79535020Y-51401980D01*
X79006700Y-51272440D01*
X78442820Y-51259740D01*
X78148180Y-51302920D01*
X77729080Y-51414680D01*
X77370940Y-51587400D01*
X77030580Y-51841400D01*
X76901040Y-51958240D01*
X76558140Y-52364640D01*
X76306680Y-52834540D01*
X76159360Y-53342540D01*
X76108560Y-53868320D01*
X76161900Y-54389020D01*
X76316840Y-54886860D01*
X76575920Y-55336440D01*
X76657200Y-55438040D01*
X76814680Y-55626000D01*
X76657200Y-55836820D01*
X76372720Y-56301640D01*
X76192380Y-56819800D01*
X76149200Y-57040780D01*
X76113640Y-57602120D01*
X76202540Y-58143140D01*
X76398120Y-58648600D01*
X76697840Y-59100720D01*
X77096620Y-59484260D01*
X77576680Y-59781440D01*
X77579220Y-59783980D01*
X77782420Y-59875420D01*
X77952600Y-59933840D01*
X78132940Y-59966860D01*
X78359000Y-59979560D01*
X78676500Y-59984640D01*
X78676500Y-59984640D01*
X78676500Y-59984640D01*
G37*
X78676500Y-59984640D02*
X79004160Y-59977020D01*
X79237840Y-59961780D01*
X79418180Y-59926220D01*
X79583280Y-59870340D01*
X79677260Y-59827160D01*
X80177640Y-59527440D01*
X80266540Y-59443620D01*
X77515720Y-59443620D01*
X77515720Y-59115960D01*
X77518260Y-58922920D01*
X77543660Y-58828940D01*
X77609700Y-58793380D01*
X77698600Y-58788300D01*
X77861160Y-58806080D01*
X77939900Y-58874660D01*
X77957680Y-59024520D01*
X77952600Y-59141360D01*
X77932280Y-59309000D01*
X77878940Y-59390280D01*
X77762100Y-59418220D01*
X77724000Y-59423300D01*
X77515720Y-59443620D01*
X80266540Y-59443620D01*
X80276700Y-59436000D01*
X79707740Y-59436000D01*
X79484220Y-59436000D01*
X79258160Y-59436000D01*
X79128620Y-59436000D01*
X78902560Y-59436000D01*
X78676500Y-59436000D01*
X78546960Y-59436000D01*
X78323440Y-59436000D01*
X78097380Y-59436000D01*
X78097380Y-59113420D01*
X78097380Y-58788300D01*
X78323440Y-58788300D01*
X78546960Y-58788300D01*
X78546960Y-59113420D01*
X78546960Y-59436000D01*
X78676500Y-59436000D01*
X78676500Y-59113420D01*
X78676500Y-58788300D01*
X78902560Y-58788300D01*
X79128620Y-58788300D01*
X79128620Y-59113420D01*
X79128620Y-59436000D01*
X79258160Y-59436000D01*
X79258160Y-59113420D01*
X79258160Y-58788300D01*
X79484220Y-58788300D01*
X79707740Y-58788300D01*
X79707740Y-59113420D01*
X79707740Y-59436000D01*
X80276700Y-59436000D01*
X80576420Y-59154060D01*
X80863440Y-58724800D01*
X80065880Y-58724800D01*
X77452220Y-58724800D01*
X77124560Y-58724800D01*
X76796900Y-58724800D01*
X76817220Y-58516520D01*
X76837540Y-58389520D01*
X76893420Y-58323480D01*
X77017880Y-58295540D01*
X77144880Y-58285380D01*
X77452220Y-58267600D01*
X77452220Y-58496200D01*
X77452220Y-58724800D01*
X80065880Y-58724800D01*
X79885540Y-58719720D01*
X79801720Y-58686700D01*
X79773780Y-58600340D01*
X79773780Y-58498740D01*
X79778860Y-58359040D01*
X79819500Y-58295540D01*
X79933800Y-58275220D01*
X80065880Y-58275220D01*
X80243680Y-58277760D01*
X80324960Y-58310780D01*
X80352900Y-58397140D01*
X80355440Y-58498740D01*
X80347820Y-58638440D01*
X80307180Y-58704480D01*
X80192880Y-58722260D01*
X80065880Y-58724800D01*
X80863440Y-58724800D01*
X80886300Y-58694320D01*
X81064100Y-58293000D01*
X81107280Y-58145680D01*
X80065880Y-58145680D01*
X77452220Y-58145680D01*
X77129640Y-58145680D01*
X76804520Y-58145680D01*
X76804520Y-57919620D01*
X76804520Y-57693560D01*
X77129640Y-57693560D01*
X77452220Y-57693560D01*
X77452220Y-57919620D01*
X77452220Y-58145680D01*
X80065880Y-58145680D01*
X79885540Y-58138060D01*
X79801720Y-58105040D01*
X79773780Y-58018680D01*
X79773780Y-57919620D01*
X79778860Y-57779920D01*
X79819500Y-57713880D01*
X79933800Y-57693560D01*
X80065880Y-57693560D01*
X80243680Y-57698640D01*
X80324960Y-57731660D01*
X80352900Y-57818020D01*
X80355440Y-57919620D01*
X80347820Y-58056780D01*
X80307180Y-58122820D01*
X80192880Y-58143140D01*
X80065880Y-58145680D01*
X81107280Y-58145680D01*
X81137760Y-58056780D01*
X81178400Y-57845960D01*
X81188560Y-57599580D01*
X81186020Y-57548780D01*
X80065880Y-57548780D01*
X79885540Y-57543700D01*
X79844900Y-57531000D01*
X77238860Y-57531000D01*
X77129640Y-57531000D01*
X76949300Y-57525920D01*
X76860400Y-57490360D01*
X76827380Y-57401460D01*
X76817220Y-57322720D01*
X76796900Y-57114440D01*
X77129640Y-57114440D01*
X77459840Y-57114440D01*
X77436980Y-57322720D01*
X77419200Y-57452260D01*
X77365860Y-57510680D01*
X77238860Y-57531000D01*
X79844900Y-57531000D01*
X79801720Y-57515760D01*
X79773780Y-57429400D01*
X79773780Y-57332880D01*
X79778860Y-57195720D01*
X79822040Y-57132220D01*
X79936340Y-57114440D01*
X80065880Y-57114440D01*
X80243680Y-57116980D01*
X80324960Y-57150000D01*
X80352900Y-57236360D01*
X80355440Y-57327800D01*
X80347820Y-57459880D01*
X80302100Y-57523380D01*
X80187800Y-57543700D01*
X80065880Y-57548780D01*
X81186020Y-57548780D01*
X81180940Y-57317640D01*
X81158080Y-56997600D01*
X81145380Y-56936640D01*
X80195420Y-56936640D01*
X80162400Y-56934100D01*
X76885800Y-56934100D01*
X76847700Y-56890920D01*
X76819760Y-56761380D01*
X76819760Y-56746140D01*
X76796900Y-56537860D01*
X77170280Y-56520080D01*
X77543660Y-56499760D01*
X77541120Y-56466740D01*
X77226160Y-56466740D01*
X76967080Y-56466740D01*
X76934060Y-56436260D01*
X76967080Y-56403240D01*
X76997560Y-56436260D01*
X76967080Y-56466740D01*
X77226160Y-56466740D01*
X77193140Y-56436260D01*
X77226160Y-56403240D01*
X77259180Y-56436260D01*
X77226160Y-56466740D01*
X77541120Y-56466740D01*
X77523340Y-56161940D01*
X77515720Y-55963820D01*
X77533500Y-55862220D01*
X77591920Y-55826660D01*
X77698600Y-55821580D01*
X77823060Y-55831740D01*
X77884020Y-55887620D01*
X77909420Y-56024780D01*
X77914500Y-56095900D01*
X77924660Y-56306720D01*
X77909420Y-56418480D01*
X77856080Y-56461660D01*
X77802740Y-56466740D01*
X77721460Y-56494680D01*
X77716380Y-56515000D01*
X77711300Y-56664860D01*
X77630020Y-56715660D01*
X77579220Y-56705500D01*
X77477620Y-56708040D01*
X77452220Y-56796940D01*
X77426820Y-56878220D01*
X77332840Y-56911240D01*
X77193140Y-56918860D01*
X77015340Y-56921400D01*
X76901040Y-56931560D01*
X76885800Y-56934100D01*
X80162400Y-56934100D01*
X80065880Y-56929020D01*
X79885540Y-56908700D01*
X79799180Y-56865520D01*
X79773780Y-56779160D01*
X79773780Y-56718200D01*
X79781400Y-56603900D01*
X79832200Y-56550560D01*
X79959200Y-56532780D01*
X80065880Y-56532780D01*
X80243680Y-56535320D01*
X80324960Y-56568340D01*
X80352900Y-56654700D01*
X80355440Y-56741060D01*
X80347820Y-56868060D01*
X80307180Y-56926480D01*
X80195420Y-56936640D01*
X81145380Y-56936640D01*
X81117440Y-56756300D01*
X81046320Y-56535320D01*
X81015840Y-56474360D01*
X78097380Y-56474360D01*
X78097380Y-56149240D01*
X78099920Y-55956200D01*
X78125320Y-55859680D01*
X78191360Y-55826660D01*
X78282800Y-55821580D01*
X78414880Y-55839360D01*
X78483460Y-55913020D01*
X78511400Y-56065420D01*
X78508860Y-56235600D01*
X78486000Y-56377840D01*
X78407260Y-56438800D01*
X78300580Y-56454040D01*
X78097380Y-56474360D01*
X81015840Y-56474360D01*
X81000600Y-56436260D01*
X79484220Y-56436260D01*
X78902560Y-56436260D01*
X78785720Y-56426100D01*
X78724760Y-56377840D01*
X78699360Y-56253380D01*
X78689200Y-56128920D01*
X78668880Y-55821580D01*
X78902560Y-55821580D01*
X79136240Y-55821580D01*
X79115920Y-56128920D01*
X79098140Y-56314340D01*
X79062580Y-56403240D01*
X78983840Y-56431180D01*
X78902560Y-56436260D01*
X79484220Y-56436260D01*
X79364840Y-56426100D01*
X79306420Y-56377840D01*
X79278480Y-56253380D01*
X79268320Y-56128920D01*
X79250540Y-55821580D01*
X79484220Y-55821580D01*
X79715360Y-55821580D01*
X79697580Y-56128920D01*
X79679800Y-56314340D01*
X79641700Y-56403240D01*
X79562960Y-56431180D01*
X79484220Y-56436260D01*
X81000600Y-56436260D01*
X80949800Y-56324500D01*
X80827880Y-56098440D01*
X80708500Y-55910480D01*
X80617060Y-55796180D01*
X80551020Y-55725060D01*
X80535780Y-55659020D01*
X80576420Y-55565040D01*
X77884020Y-55565040D01*
X77533500Y-55521860D01*
X77200760Y-55377080D01*
X76908660Y-55130700D01*
X76799440Y-54993540D01*
X76713080Y-54843680D01*
X76664820Y-54681120D01*
X76647040Y-54460140D01*
X76644500Y-54300120D01*
X76649580Y-54046120D01*
X76672440Y-53873400D01*
X76730860Y-53738780D01*
X76832460Y-53599080D01*
X76842620Y-53586380D01*
X77063600Y-53367940D01*
X77337920Y-53190140D01*
X77617320Y-53075840D01*
X77802740Y-53047900D01*
X78064360Y-53075840D01*
X78323440Y-53144420D01*
X78526640Y-53243480D01*
X78585060Y-53289200D01*
X78666340Y-53355240D01*
X78732380Y-53329840D01*
X78806040Y-53235860D01*
X78897480Y-53134260D01*
X79062580Y-52966620D01*
X79275940Y-52758340D01*
X79519780Y-52529740D01*
X79550260Y-52501800D01*
X80177640Y-51925220D01*
X80302100Y-52080160D01*
X80429100Y-52235100D01*
X79989680Y-52659280D01*
X79748380Y-52885340D01*
X79504540Y-53113940D01*
X79291180Y-53304440D01*
X79240380Y-53347620D01*
X78933040Y-53611780D01*
X79032100Y-53842920D01*
X79121000Y-54218840D01*
X79085440Y-54602380D01*
X79029560Y-54775100D01*
X78826360Y-55112920D01*
X78552040Y-55356760D01*
X78232000Y-55509160D01*
X77884020Y-55565040D01*
X80576420Y-55565040D01*
X80578960Y-55562500D01*
X80690720Y-55397400D01*
X80705960Y-55382160D01*
X80967580Y-54909720D01*
X81132680Y-54386480D01*
X81198720Y-53842920D01*
X81160620Y-53312060D01*
X81051400Y-52918360D01*
X80792320Y-52405280D01*
X80444340Y-51973480D01*
X80020160Y-51638200D01*
X79535020Y-51401980D01*
X79006700Y-51272440D01*
X78442820Y-51259740D01*
X78148180Y-51302920D01*
X77729080Y-51414680D01*
X77370940Y-51587400D01*
X77030580Y-51841400D01*
X76901040Y-51958240D01*
X76558140Y-52364640D01*
X76306680Y-52834540D01*
X76159360Y-53342540D01*
X76108560Y-53868320D01*
X76161900Y-54389020D01*
X76316840Y-54886860D01*
X76575920Y-55336440D01*
X76657200Y-55438040D01*
X76814680Y-55626000D01*
X76657200Y-55836820D01*
X76372720Y-56301640D01*
X76192380Y-56819800D01*
X76149200Y-57040780D01*
X76113640Y-57602120D01*
X76202540Y-58143140D01*
X76398120Y-58648600D01*
X76697840Y-59100720D01*
X77096620Y-59484260D01*
X77576680Y-59781440D01*
X77579220Y-59783980D01*
X77782420Y-59875420D01*
X77952600Y-59933840D01*
X78132940Y-59966860D01*
X78359000Y-59979560D01*
X78676500Y-59984640D01*
X78676500Y-59984640D01*
G36*
X77736700Y-55163720D02*
X78031340Y-55145940D01*
X78308200Y-55039260D01*
X78536800Y-54856380D01*
X78689200Y-54612540D01*
X78740000Y-54338220D01*
X78712060Y-54170580D01*
X78640940Y-53977540D01*
X78628240Y-53957220D01*
X78430120Y-53693060D01*
X78178660Y-53527960D01*
X77894180Y-53461920D01*
X77604620Y-53494940D01*
X77337920Y-53632100D01*
X77119480Y-53868320D01*
X77101700Y-53896260D01*
X77007720Y-54170580D01*
X77017880Y-54465220D01*
X77119480Y-54747160D01*
X77302360Y-54978300D01*
X77444600Y-55077360D01*
X77736700Y-55163720D01*
X77736700Y-55163720D01*
X77736700Y-55163720D01*
G37*
X77736700Y-55163720D02*
X78031340Y-55145940D01*
X78308200Y-55039260D01*
X78536800Y-54856380D01*
X78689200Y-54612540D01*
X78740000Y-54338220D01*
X78712060Y-54170580D01*
X78640940Y-53977540D01*
X78628240Y-53957220D01*
X78430120Y-53693060D01*
X78178660Y-53527960D01*
X77894180Y-53461920D01*
X77604620Y-53494940D01*
X77337920Y-53632100D01*
X77119480Y-53868320D01*
X77101700Y-53896260D01*
X77007720Y-54170580D01*
X77017880Y-54465220D01*
X77119480Y-54747160D01*
X77302360Y-54978300D01*
X77444600Y-55077360D01*
X77736700Y-55163720D01*
X77736700Y-55163720D01*
M02*
