M48
;DRILL file {kicad (2015-01-16 BZR 5376)-product} date 01-Oct-16 1:27:25 PM
;FORMAT={-:-/ absolute / metric / decimal}
FMAT,2
METRIC,TZ
T1C0.400
T2C0.500
T3C0.900
T4C1.016
T5C2.000
%
G90
G05
M71
T1
X68.783Y-63.551
X68.986Y-69.037
X70.714Y-58.776
X71.539Y-90.729
X72.39Y-75.692
X72.441Y-77.267
X72.441Y-79.604
X72.746Y-49.733
X73.Y-63.703
X73.152Y-61.658
X73.304Y-77.572
X73.406Y-78.537
X73.558Y-70.256
X74.371Y-55.423
X74.473Y-70.053
X74.536Y-56.388
X74.727Y-50.8
X75.082Y-60.046
X75.387Y-74.778
X75.527Y-56.477
X75.755Y-61.595
X75.895Y-73.762
X75.946Y-71.133
X76.403Y-79.743
X76.759Y-73.
X77.013Y-67.462
X77.406Y-63.881
X77.572Y-73.711
X77.622Y-74.727
X77.749Y-75.755
X77.978Y-59.436
X78.029Y-49.479
X78.092Y-79.807
X78.232Y-76.708
X78.283Y-70.155
X78.384Y-67.818
X78.943Y-63.551
X78.956Y-59.36
X79.451Y-49.378
X79.718Y-67.373
X79.959Y-63.754
X80.67Y-49.174
X80.721Y-76.403
X80.924Y-70.663
X80.924Y-71.78
X81.547Y-50.419
X82.144Y-61.468
X82.144Y-71.78
X82.398Y-67.31
X82.652Y-55.626
X82.855Y-52.578
X83.668Y-50.19
X84.023Y-67.259
X84.176Y-58.166
X84.176Y-85.039
X84.226Y-73.863
X84.277Y-72.898
X84.328Y-60.147
X84.379Y-61.57
X84.379Y-71.933
X84.48Y-70.968
X84.633Y-84.023
X84.785Y-74.778
X84.938Y-75.794
X85.192Y-84.887
X85.903Y-89.357
X86.309Y-65.126
X86.512Y-91.44
X86.868Y-55.931
X87.122Y-50.749
X87.274Y-92.253
X87.528Y-59.538
X87.681Y-65.227
T2
X71.73Y-88.29
X75.184Y-86.36
X76.657Y-86.512
X80.899Y-83.502
X80.899Y-87.058
X82.359Y-86.487
T4
X67.31Y-46.99
X67.31Y-49.53
X67.31Y-52.07
X67.31Y-54.61
X67.31Y-57.15
X67.31Y-59.69
X67.31Y-62.23
X67.31Y-64.77
X67.31Y-67.31
X67.31Y-69.85
X67.31Y-72.39
X67.31Y-74.93
X67.31Y-77.47
X67.31Y-80.01
X67.31Y-82.55
X67.31Y-85.09
X67.31Y-87.63
X67.31Y-90.17
X67.31Y-92.71
X67.31Y-95.25
X69.85Y-98.552
X72.39Y-98.552
X73.66Y-92.964
X73.66Y-95.504
X74.93Y-98.552
X76.2Y-92.964
X76.2Y-95.504
X77.47Y-98.552
X78.74Y-92.964
X78.74Y-95.504
X80.01Y-98.552
X81.28Y-92.964
X81.28Y-95.504
X82.55Y-98.552
X83.82Y-92.964
X83.82Y-95.504
X85.09Y-98.552
X87.63Y-98.552
X90.17Y-46.99
X90.17Y-49.53
X90.17Y-52.07
X90.17Y-54.61
X90.17Y-57.15
X90.17Y-59.69
X90.17Y-62.23
X90.17Y-64.77
X90.17Y-67.31
X90.17Y-69.85
X90.17Y-72.39
X90.17Y-74.93
X90.17Y-77.47
X90.17Y-80.01
X90.17Y-82.55
X90.17Y-85.09
X90.17Y-87.63
X90.17Y-90.17
X90.17Y-92.71
X90.17Y-95.25
T5
X67.945Y-43.815
X67.945Y-101.6
X89.535Y-43.815
X89.535Y-101.6
T3
X73.915Y-42.996G85X73.915Y-43.896
G05
X73.915Y-46.296G85X73.915Y-47.196
G05
X83.565Y-42.996G85X83.565Y-43.896
G05
X83.565Y-46.296G85X83.565Y-47.196
G05
T0
M30
