G04 #@! TF.FileFunction,Copper,L2,Bot,Signal*
%FSLAX46Y46*%
G04 Gerber Fmt 4.6, Leading zero omitted, Abs format (unit mm)*
G04 Created by KiCad (PCBNEW (2015-01-16 BZR 5376)-product) date 01-Oct-16 1:27:22 PM*
%MOMM*%
G01*
G04 APERTURE LIST*
%ADD10C,0.150000*%
%ADD11C,0.100000*%
%ADD12R,2.200000X2.500000*%
%ADD13C,3.000000*%
%ADD14O,1.727200X2.032000*%
%ADD15O,2.032000X1.727200*%
%ADD16R,1.727200X1.727200*%
%ADD17O,1.727200X1.727200*%
%ADD18C,0.760000*%
%ADD19C,0.910000*%
%ADD20C,0.508000*%
%ADD21C,0.381000*%
%ADD22C,0.304800*%
%ADD23C,0.254000*%
G04 APERTURE END LIST*
D10*
D11*
X69850000Y-103505000D02*
X68580000Y-103505000D01*
X88900000Y-103505000D02*
X87630000Y-103505000D01*
X86995000Y-104140000D02*
X87630000Y-103505000D01*
X70485000Y-104140000D02*
X86995000Y-104140000D01*
X69850000Y-103505000D02*
X70485000Y-104140000D01*
X82296000Y-41910000D02*
X82550000Y-41910000D01*
X75184000Y-41910000D02*
X74930000Y-41910000D01*
X85090000Y-41910000D02*
X82550000Y-41910000D01*
X85725000Y-41275000D02*
X85090000Y-41910000D01*
X91440000Y-41275000D02*
X85725000Y-41275000D01*
X91440000Y-41910000D02*
X91440000Y-41275000D01*
X72390000Y-41910000D02*
X74930000Y-41910000D01*
X71755000Y-41275000D02*
X72390000Y-41910000D01*
X66040000Y-41275000D02*
X71755000Y-41275000D01*
X66040000Y-41910000D02*
X66040000Y-41275000D01*
X82296000Y-46736000D02*
X82296000Y-41910000D01*
X75184000Y-46736000D02*
X82296000Y-46736000D01*
X75184000Y-41910000D02*
X75184000Y-46736000D01*
X66040000Y-100965000D02*
X66040000Y-100330000D01*
X91440000Y-100330000D02*
X91440000Y-100965000D01*
X66040000Y-100965000D02*
G75*
G03X68580000Y-103505000I2540000J0D01*
G01*
X88900000Y-103505000D02*
G75*
G03X91440000Y-100965000I0J2540000D01*
G01*
X91440000Y-41910000D02*
X91440000Y-45720000D01*
X66040000Y-45720000D02*
X66040000Y-41910000D01*
X91440000Y-100330000D02*
X91440000Y-96520000D01*
X66040000Y-96520000D02*
X66040000Y-100330000D01*
X66040000Y-46990000D02*
X66040000Y-45720000D01*
X91440000Y-46990000D02*
X91440000Y-45720000D01*
X91440000Y-96520000D02*
X91440000Y-46990000D01*
X66040000Y-46990000D02*
X66040000Y-96520000D01*
D12*
X83565000Y-46745600D03*
X83565000Y-43445600D03*
X73915000Y-46745600D03*
X73915000Y-43445600D03*
D13*
X89535000Y-101600000D03*
X67945000Y-43815000D03*
X89535000Y-43815000D03*
X67945000Y-101600000D03*
D14*
X69850000Y-98552000D03*
X72390000Y-98552000D03*
X74930000Y-98552000D03*
X77470000Y-98552000D03*
X80010000Y-98552000D03*
X82550000Y-98552000D03*
X85090000Y-98552000D03*
X87630000Y-98552000D03*
D15*
X90170000Y-72390000D03*
X90170000Y-74930000D03*
X90170000Y-77470000D03*
X90170000Y-80010000D03*
X90170000Y-82550000D03*
X90170000Y-85090000D03*
X90170000Y-87630000D03*
X90170000Y-90170000D03*
X90170000Y-92710000D03*
X90170000Y-95250000D03*
X90170000Y-69850000D03*
X90170000Y-67310000D03*
X90170000Y-64770000D03*
X90170000Y-62230000D03*
X90170000Y-59690000D03*
X90170000Y-57150000D03*
X90170000Y-54610000D03*
X90170000Y-52070000D03*
X90170000Y-49530000D03*
X90170000Y-46990000D03*
X67310000Y-72390000D03*
X67310000Y-74930000D03*
X67310000Y-77470000D03*
X67310000Y-80010000D03*
X67310000Y-82550000D03*
X67310000Y-85090000D03*
X67310000Y-87630000D03*
X67310000Y-90170000D03*
X67310000Y-92710000D03*
X67310000Y-95250000D03*
X67310000Y-46990000D03*
X67310000Y-49530000D03*
X67310000Y-52070000D03*
X67310000Y-54610000D03*
X67310000Y-57150000D03*
X67310000Y-59690000D03*
X67310000Y-62230000D03*
X67310000Y-64770000D03*
X67310000Y-67310000D03*
X67310000Y-69850000D03*
D16*
X83820000Y-92964000D03*
D17*
X83820000Y-95504000D03*
X81280000Y-92964000D03*
X81280000Y-95504000D03*
X78740000Y-92964000D03*
X78740000Y-95504000D03*
X76200000Y-92964000D03*
X76200000Y-95504000D03*
X73660000Y-92964000D03*
X73660000Y-95504000D03*
D18*
X78092300Y-79806800D03*
X78384400Y-67818000D03*
X78232000Y-76708000D03*
X86868000Y-55930800D03*
X86309200Y-65125600D03*
X87122000Y-50749200D03*
X80670400Y-49174400D03*
X74726800Y-50800000D03*
D19*
X80899000Y-83502500D03*
X82359500Y-86487000D03*
X75184000Y-86360000D03*
D18*
X68986400Y-69037200D03*
X68783200Y-63550800D03*
D19*
X71729600Y-88290400D03*
X76657200Y-86512400D03*
D18*
X84023200Y-67259200D03*
X83667600Y-50190400D03*
X79717900Y-67373500D03*
X78955900Y-59359800D03*
X75526900Y-56476900D03*
X76403200Y-79743300D03*
X77012800Y-67462400D03*
X76758800Y-72999600D03*
X84328000Y-60147200D03*
X82397600Y-67310000D03*
X82651600Y-55626000D03*
X82143600Y-61468000D03*
X80721200Y-76403200D03*
X73558400Y-70256400D03*
X87528400Y-59537600D03*
X87680800Y-65227200D03*
X70713600Y-58775600D03*
X84175600Y-58166000D03*
X72745600Y-49733200D03*
X74371200Y-55422800D03*
X77749400Y-75755500D03*
X81546700Y-50419000D03*
D19*
X80899000Y-87058500D03*
D18*
X73152000Y-61658500D03*
X75755500Y-61595000D03*
X75946000Y-71132700D03*
X84378800Y-61569600D03*
X78282800Y-70154800D03*
X77406500Y-63881000D03*
X75082400Y-60045600D03*
X72390000Y-75692000D03*
X72440800Y-77266800D03*
X73304400Y-77571600D03*
X73406000Y-78536800D03*
X72440800Y-79603600D03*
X71539100Y-90728800D03*
X84937600Y-75793600D03*
X84785200Y-74777600D03*
X87274400Y-92252800D03*
X84226400Y-73863200D03*
X86512400Y-91440000D03*
X84277200Y-72898000D03*
X85902800Y-89357200D03*
X84378800Y-71932800D03*
X85191600Y-84886800D03*
X84480400Y-70967600D03*
X84632800Y-84023200D03*
X82143600Y-71780400D03*
X84175600Y-85039200D03*
X79959200Y-63754000D03*
X78943200Y-63550800D03*
X75895200Y-73761600D03*
X77571600Y-73710800D03*
X80924400Y-70662800D03*
X80924400Y-71780400D03*
X77622400Y-74726800D03*
X75387200Y-74777600D03*
X74472800Y-70053200D03*
X77978000Y-59436000D03*
X72999600Y-63703200D03*
X82854800Y-52578000D03*
X74536300Y-56388000D03*
X79451200Y-49377600D03*
X78028800Y-49479200D03*
D20*
X76879450Y-82194400D02*
X76879450Y-82530950D01*
X76879450Y-81019650D02*
X76879450Y-82194400D01*
X78092300Y-79806800D02*
X76879450Y-81019650D01*
X77419200Y-71323200D02*
X77419200Y-68783200D01*
X77419200Y-68783200D02*
X78384400Y-67818000D01*
X78206600Y-72110600D02*
X77622400Y-71526400D01*
X77622400Y-71526400D02*
X77419200Y-71323200D01*
X78638400Y-72542400D02*
X78206600Y-72110600D01*
D21*
X78206600Y-72110600D02*
X78181200Y-72085200D01*
D20*
X78638400Y-76301600D02*
X78638400Y-72542400D01*
X78232000Y-76708000D02*
X78638400Y-76301600D01*
D21*
X86309200Y-65125600D02*
X86461600Y-64973200D01*
D20*
X86461600Y-64973200D02*
X86461600Y-56337200D01*
X86461600Y-56337200D02*
X86868000Y-55930800D01*
X87122000Y-50749200D02*
X86791800Y-50419000D01*
X86791800Y-50419000D02*
X86791800Y-48844200D01*
X80873600Y-48971200D02*
X82600800Y-48971200D01*
D21*
X80670400Y-49174400D02*
X80873600Y-48971200D01*
D20*
X88646000Y-46990000D02*
X90170000Y-46990000D01*
X86791800Y-48844200D02*
X88646000Y-46990000D01*
X86664800Y-48971200D02*
X86791800Y-48844200D01*
X83223100Y-48971200D02*
X86664800Y-48971200D01*
X82600800Y-48971200D02*
X83223100Y-48971200D01*
D22*
X89357200Y-46990000D02*
X90170000Y-46990000D01*
D20*
X74726800Y-51079400D02*
X75552300Y-51904900D01*
X75552300Y-51904900D02*
X81470500Y-51904900D01*
X81470500Y-51904900D02*
X82473800Y-50901600D01*
X82473800Y-50901600D02*
X82473800Y-49720500D01*
X82473800Y-49720500D02*
X83223100Y-48971200D01*
X74726800Y-50800000D02*
X74726800Y-51079400D01*
X80899000Y-83502500D02*
X80518000Y-83121500D01*
X80518000Y-83121500D02*
X77470000Y-83121500D01*
X77470000Y-83121500D02*
X76879450Y-82530950D01*
X83058000Y-87185500D02*
X82359500Y-86487000D01*
X85140800Y-95504000D02*
X85445600Y-95199200D01*
X85445600Y-95199200D02*
X85445600Y-91033600D01*
X85445600Y-91033600D02*
X83058000Y-88646000D01*
X83820000Y-95504000D02*
X85140800Y-95504000D01*
X83058000Y-88646000D02*
X83058000Y-87185500D01*
X75184000Y-86360000D02*
X76879450Y-84664550D01*
X76879450Y-84664550D02*
X76879450Y-82365850D01*
D21*
X68986400Y-63754000D02*
X68986400Y-69037200D01*
X68783200Y-63550800D02*
X68986400Y-63754000D01*
X71729600Y-88290400D02*
X71755000Y-88265000D01*
X71755000Y-88265000D02*
X71755000Y-82080100D01*
X67983100Y-74256900D02*
X67310000Y-74930000D01*
X71755000Y-81445100D02*
X74180700Y-79019400D01*
X74180700Y-79019400D02*
X74180700Y-76327000D01*
X74180700Y-76327000D02*
X72110600Y-74256900D01*
X72110600Y-74256900D02*
X67983100Y-74256900D01*
X71755000Y-82080100D02*
X71755000Y-81445100D01*
D20*
X78740000Y-90017600D02*
X78740000Y-89662000D01*
X78740000Y-90068400D02*
X78740000Y-90017600D01*
X78740000Y-92964000D02*
X78740000Y-90068400D01*
X78740000Y-88595200D02*
X76657200Y-86512400D01*
X78740000Y-90068400D02*
X78740000Y-88595200D01*
D21*
X81788000Y-80721200D02*
X81788000Y-80568800D01*
X79959200Y-70561200D02*
X80365600Y-70154800D01*
X79959200Y-78740000D02*
X79959200Y-70561200D01*
X81788000Y-80568800D02*
X79959200Y-78740000D01*
X81356200Y-69164200D02*
X82143600Y-68376800D01*
X82905600Y-68376800D02*
X84023200Y-67259200D01*
X82143600Y-68376800D02*
X82905600Y-68376800D01*
X87325200Y-67005200D02*
X90170000Y-69850000D01*
X84023200Y-67259200D02*
X84277200Y-67005200D01*
X84277200Y-67005200D02*
X87325200Y-67005200D01*
X81635600Y-68884800D02*
X81356200Y-69164200D01*
X81356200Y-69164200D02*
X80365600Y-70154800D01*
X67701200Y-46990000D02*
X67310000Y-46990000D01*
X69850000Y-50749200D02*
X69291200Y-50190400D01*
X69291200Y-50190400D02*
X69291200Y-48580000D01*
X76809600Y-57200800D02*
X73406000Y-57200800D01*
X73406000Y-57200800D02*
X69850000Y-53644800D01*
X69850000Y-53644800D02*
X69850000Y-50749200D01*
X69291200Y-48580000D02*
X67701200Y-46990000D01*
X83667600Y-53441600D02*
X82499200Y-54610000D01*
X82499200Y-54610000D02*
X82346800Y-54610000D01*
X83667600Y-50190400D02*
X83667600Y-53441600D01*
X82092800Y-54610000D02*
X79502000Y-57200800D01*
X79502000Y-57200800D02*
X76809600Y-57200800D01*
X82346800Y-54610000D02*
X82092800Y-54610000D01*
X83820000Y-92964000D02*
X83820000Y-92202000D01*
X83820000Y-92202000D02*
X79806800Y-88188800D01*
X79806800Y-88188800D02*
X79806800Y-86309200D01*
X79806800Y-86309200D02*
X81788000Y-84328000D01*
X81788000Y-84328000D02*
X81788000Y-80721200D01*
X76250800Y-57200800D02*
X76733400Y-57200800D01*
X75526900Y-56476900D02*
X76250800Y-57200800D01*
X79717900Y-67170300D02*
X78181200Y-65633600D01*
X78181200Y-65633600D02*
X78181200Y-61112400D01*
X78181200Y-61112400D02*
X78955900Y-60337700D01*
X78955900Y-60337700D02*
X78955900Y-59359800D01*
X79717900Y-67373500D02*
X79717900Y-67170300D01*
X75844400Y-83794600D02*
X74371200Y-85267800D01*
X75844400Y-80302100D02*
X75844400Y-83794600D01*
X76403200Y-79743300D02*
X75844400Y-80302100D01*
X76809600Y-72948800D02*
X76758800Y-72999600D01*
X76809600Y-67665600D02*
X76809600Y-72948800D01*
X77012800Y-67462400D02*
X76809600Y-67665600D01*
X76200000Y-92964000D02*
X76200000Y-90220800D01*
X74371200Y-88392000D02*
X74371200Y-85267800D01*
X76200000Y-90220800D02*
X74371200Y-88392000D01*
X85496400Y-61874400D02*
X85496400Y-61315600D01*
X85496400Y-61315600D02*
X84328000Y-60147200D01*
X86766400Y-66192400D02*
X86309200Y-66192400D01*
X85496400Y-61366400D02*
X85445600Y-61315600D01*
X85496400Y-65379600D02*
X85496400Y-61874400D01*
X85496400Y-61874400D02*
X85496400Y-61366400D01*
X86309200Y-66192400D02*
X85496400Y-65379600D01*
X79298800Y-73964800D02*
X79298800Y-76911200D01*
X78079600Y-78130400D02*
X76936600Y-78130400D01*
X79298800Y-76911200D02*
X78079600Y-78130400D01*
X90170000Y-67310000D02*
X89611200Y-67310000D01*
X89611200Y-67310000D02*
X88493600Y-66192400D01*
X83515200Y-66192400D02*
X82397600Y-67310000D01*
X88493600Y-66192400D02*
X86766400Y-66192400D01*
X86766400Y-66192400D02*
X86512400Y-66192400D01*
X86512400Y-66192400D02*
X83515200Y-66192400D01*
X73660000Y-81407000D02*
X76936600Y-78130400D01*
X73660000Y-81407000D02*
X73660000Y-92964000D01*
X79298800Y-73964800D02*
X79298800Y-71475600D01*
X81838800Y-67767200D02*
X79298800Y-70307200D01*
X79298800Y-70307200D02*
X79298800Y-71475600D01*
X81940400Y-67767200D02*
X81838800Y-67767200D01*
X82397600Y-67310000D02*
X81940400Y-67767200D01*
X79946500Y-57810400D02*
X78778100Y-57810400D01*
X82651600Y-55626000D02*
X82130900Y-55626000D01*
X68935600Y-51612800D02*
X68935600Y-51155600D01*
X68935600Y-51155600D02*
X67310000Y-49530000D01*
X78778100Y-57810400D02*
X72542400Y-57810400D01*
X72542400Y-57810400D02*
X68935600Y-54203600D01*
X68935600Y-54203600D02*
X68935600Y-51612800D01*
X82130900Y-55626000D02*
X79946500Y-57810400D01*
D20*
X83312000Y-58166000D02*
X84175600Y-58166000D01*
X82194400Y-59283600D02*
X83312000Y-58166000D01*
X82194400Y-61417200D02*
X82194400Y-59283600D01*
X82143600Y-61468000D02*
X82194400Y-61417200D01*
X75380850Y-78809850D02*
X75380850Y-76142850D01*
X70713600Y-64249300D02*
X70713600Y-58775600D01*
X75476100Y-69011800D02*
X70713600Y-64249300D01*
X75476100Y-70459600D02*
X75476100Y-69011800D01*
X74371200Y-71564500D02*
X75476100Y-70459600D01*
X74371200Y-75133200D02*
X74371200Y-71564500D01*
X75380850Y-76142850D02*
X74371200Y-75133200D01*
X72618600Y-84289900D02*
X72618600Y-83223100D01*
X73660000Y-95504000D02*
X72580500Y-95504000D01*
X72618600Y-91236800D02*
X72618600Y-84289900D01*
X72618600Y-84289900D02*
X72618600Y-83731100D01*
X71932800Y-91922600D02*
X72618600Y-91236800D01*
X71932800Y-94856300D02*
X71932800Y-91922600D01*
X72580500Y-95504000D02*
X71932800Y-94856300D01*
X82702400Y-83769200D02*
X82702400Y-84277200D01*
D21*
X80721200Y-76403200D02*
X80772000Y-76454000D01*
D20*
X80772000Y-76454000D02*
X80772000Y-78536800D01*
X80772000Y-78536800D02*
X82702400Y-80467200D01*
X82702400Y-80467200D02*
X82702400Y-83769200D01*
X70713600Y-58775600D02*
X70713600Y-67411600D01*
X70713600Y-67411600D02*
X73558400Y-70256400D01*
X87528400Y-65074800D02*
X87528400Y-59537600D01*
D21*
X87680800Y-65227200D02*
X87528400Y-65074800D01*
D20*
X70916800Y-58572400D02*
X78994000Y-58572400D01*
X70713600Y-58775600D02*
X70916800Y-58572400D01*
X84175600Y-58166000D02*
X84175600Y-57226200D01*
X80200500Y-58572400D02*
X78994000Y-58572400D01*
X82130900Y-56642000D02*
X80200500Y-58572400D01*
X83591400Y-56642000D02*
X82130900Y-56642000D01*
X84175600Y-57226200D02*
X83591400Y-56642000D01*
X73101200Y-54152800D02*
X74371200Y-55422800D01*
X73101200Y-50088800D02*
X73101200Y-54152800D01*
X72745600Y-49733200D02*
X73101200Y-50088800D01*
X76200000Y-95504000D02*
X73660000Y-95504000D01*
X72618600Y-82486500D02*
X72618600Y-81584800D01*
X72618600Y-83223100D02*
X72618600Y-82486500D01*
X72618600Y-81572100D02*
X75380850Y-78809850D01*
X75380850Y-78809850D02*
X77025500Y-77165200D01*
X77025500Y-77165200D02*
X77025500Y-77127100D01*
X77749400Y-75755500D02*
X77622400Y-75755500D01*
X77025500Y-76352400D02*
X77025500Y-77127100D01*
X77622400Y-75755500D02*
X77025500Y-76352400D01*
X72618600Y-82486500D02*
X72618600Y-81572100D01*
X76098400Y-49733200D02*
X77076300Y-50711100D01*
X77076300Y-50711100D02*
X81254600Y-50711100D01*
X81254600Y-50711100D02*
X81546700Y-50419000D01*
X72745600Y-49733200D02*
X76098400Y-49733200D01*
X80899000Y-87058500D02*
X80962500Y-86995000D01*
X80962500Y-86995000D02*
X80962500Y-86550500D01*
X80962500Y-86550500D02*
X82702400Y-84810600D01*
X82702400Y-84810600D02*
X82702400Y-83769200D01*
X75755500Y-61595000D02*
X75692000Y-61658500D01*
X75692000Y-61658500D02*
X73152000Y-61658500D01*
X76200000Y-68389500D02*
X74104500Y-66294000D01*
X74104500Y-66294000D02*
X74104500Y-62611000D01*
X74104500Y-62611000D02*
X73152000Y-61658500D01*
X75946000Y-71132700D02*
X76200000Y-70878700D01*
X76200000Y-70878700D02*
X76200000Y-69748400D01*
X76200000Y-69748400D02*
X76200000Y-68389500D01*
X82956400Y-65481200D02*
X84582000Y-63855600D01*
X84582000Y-61772800D02*
X84378800Y-61569600D01*
X84582000Y-63855600D02*
X84582000Y-61772800D01*
X81229200Y-67208400D02*
X82956400Y-65481200D01*
X82956400Y-65481200D02*
X83058000Y-65379600D01*
X78282800Y-70154800D02*
X81229200Y-67208400D01*
D22*
X77406500Y-63881000D02*
X76581000Y-63055500D01*
X76581000Y-63055500D02*
X76581000Y-61214000D01*
X76581000Y-61214000D02*
X75412600Y-60045600D01*
X75412600Y-60045600D02*
X75082400Y-60045600D01*
X72390000Y-75692000D02*
X72085200Y-75996800D01*
X72085200Y-75996800D02*
X69697600Y-75996800D01*
X69697600Y-75996800D02*
X68732400Y-76962000D01*
X68732400Y-76962000D02*
X68732400Y-81127600D01*
X68732400Y-81127600D02*
X67310000Y-82550000D01*
X72440800Y-77266800D02*
X72034400Y-76860400D01*
X72034400Y-76860400D02*
X70358000Y-76860400D01*
X70358000Y-76860400D02*
X69443600Y-77774800D01*
X69443600Y-77774800D02*
X69443600Y-85496400D01*
X69443600Y-85496400D02*
X67310000Y-87630000D01*
X73304400Y-77571600D02*
X72796400Y-78079600D01*
X72796400Y-78079600D02*
X70459600Y-78079600D01*
X70459600Y-78079600D02*
X69951600Y-78587600D01*
X69951600Y-78587600D02*
X69951600Y-86258400D01*
X69951600Y-86258400D02*
X68935600Y-87274400D01*
X68935600Y-87274400D02*
X68935600Y-88544400D01*
X68935600Y-88544400D02*
X67310000Y-90170000D01*
X73406000Y-78536800D02*
X73202800Y-78740000D01*
X73202800Y-78740000D02*
X70866002Y-78740000D01*
X70866002Y-78740000D02*
X70459600Y-79146402D01*
X70459600Y-79146402D02*
X70459600Y-88188800D01*
X70459600Y-88188800D02*
X68935600Y-89712800D01*
X68935600Y-89712800D02*
X68935600Y-91084400D01*
X68935600Y-91084400D02*
X67310000Y-92710000D01*
X72440800Y-79603600D02*
X72390000Y-79654400D01*
X72390000Y-79654400D02*
X71424800Y-79654400D01*
X71424800Y-79654400D02*
X70967600Y-80111600D01*
X70967600Y-80111600D02*
X70967600Y-88493600D01*
X70967600Y-88493600D02*
X69545200Y-89916000D01*
X69545200Y-89916000D02*
X69545200Y-91744800D01*
X69545200Y-91744800D02*
X69240400Y-92049600D01*
X69240400Y-92049600D02*
X69240400Y-93319600D01*
X69240400Y-93319600D02*
X67310000Y-95250000D01*
X70980300Y-93091000D02*
X71018400Y-93091000D01*
X71018400Y-93052900D02*
X70980300Y-93091000D01*
X71018400Y-91249500D02*
X71018400Y-93052900D01*
X71539100Y-90728800D02*
X71018400Y-91249500D01*
X77470000Y-98196400D02*
X77470000Y-98552000D01*
X71018400Y-93091000D02*
X71018400Y-96215200D01*
X71018400Y-96215200D02*
X71882000Y-97078800D01*
X71882000Y-97078800D02*
X76352400Y-97078800D01*
X76352400Y-97078800D02*
X77470000Y-98196400D01*
X89154000Y-95250000D02*
X90170000Y-95250000D01*
X88036400Y-94132400D02*
X89154000Y-95250000D01*
X85039200Y-75793600D02*
X88036400Y-78790800D01*
X88036400Y-78790800D02*
X88036400Y-94132400D01*
X84937600Y-75793600D02*
X85039200Y-75793600D01*
X84785200Y-74777600D02*
X84175600Y-75387200D01*
X84175600Y-75387200D02*
X84175600Y-76301600D01*
X84175600Y-76301600D02*
X87274400Y-79400400D01*
X87274400Y-79400400D02*
X87274400Y-92252800D01*
X84226400Y-73863200D02*
X83616800Y-74472800D01*
X83616800Y-74472800D02*
X83616800Y-76504800D01*
X83616800Y-76504800D02*
X86715600Y-79603600D01*
X86715600Y-79603600D02*
X86715600Y-91236800D01*
X86715600Y-91236800D02*
X86512400Y-91440000D01*
X84277200Y-72898000D02*
X83718400Y-72898000D01*
X83718400Y-72898000D02*
X83058000Y-73558400D01*
X83058000Y-73558400D02*
X83058000Y-76708000D01*
X83058000Y-76708000D02*
X86156800Y-79806800D01*
X86156800Y-79806800D02*
X86156800Y-89103200D01*
X86156800Y-89103200D02*
X85902800Y-89357200D01*
X84378800Y-71932800D02*
X83870800Y-71932800D01*
X83870800Y-71932800D02*
X82550000Y-73253600D01*
X82550000Y-73253600D02*
X82550000Y-76962000D01*
X82550000Y-76962000D02*
X85394800Y-79806800D01*
X85394800Y-84023200D02*
X85394800Y-84074000D01*
X85394800Y-79806800D02*
X85394800Y-84023200D01*
X85394800Y-84683600D02*
X85191600Y-84886800D01*
X85394800Y-84023200D02*
X85394800Y-84683600D01*
X84480400Y-70967600D02*
X83972400Y-70967600D01*
X83972400Y-70967600D02*
X81991200Y-72948800D01*
X81991200Y-72948800D02*
X81991200Y-77266800D01*
X81991200Y-77266800D02*
X84632800Y-79908400D01*
X84632800Y-79908400D02*
X84632800Y-84023200D01*
X81483200Y-72440800D02*
X81483200Y-72847200D01*
X82143600Y-71780400D02*
X81483200Y-72440800D01*
X83921600Y-84785200D02*
X84175600Y-85039200D01*
X81483200Y-72542400D02*
X81483200Y-72847200D01*
X81483200Y-72847200D02*
X81483200Y-77520800D01*
X83921600Y-79959200D02*
X83921600Y-84785200D01*
X81483200Y-77520800D02*
X83921600Y-79959200D01*
X79959200Y-63754000D02*
X81940400Y-63754000D01*
X83515200Y-59817002D02*
X83947002Y-59385200D01*
X83515200Y-62179200D02*
X83515200Y-59817002D01*
X81940400Y-63754000D02*
X83515200Y-62179200D01*
X85826600Y-58166000D02*
X85826600Y-58496200D01*
X85826600Y-55143400D02*
X86360000Y-54610000D01*
X86360000Y-54610000D02*
X90170000Y-54610000D01*
X85826600Y-58166000D02*
X85826600Y-55143400D01*
X84937600Y-59385200D02*
X83947002Y-59385200D01*
X85826600Y-58496200D02*
X84937600Y-59385200D01*
X78943200Y-63550800D02*
X78994000Y-63550800D01*
X82956400Y-59639200D02*
X83743800Y-58851800D01*
X82956400Y-61976000D02*
X82956400Y-59639200D01*
X81940400Y-62992000D02*
X82956400Y-61976000D01*
X79552800Y-62992000D02*
X81940400Y-62992000D01*
X78994000Y-63550800D02*
X79552800Y-62992000D01*
X84709000Y-58851800D02*
X83743800Y-58851800D01*
X84709000Y-58851800D02*
X85039200Y-58521600D01*
X85039200Y-54051200D02*
X87020400Y-52070000D01*
X90170000Y-52070000D02*
X87020400Y-52070000D01*
X85039200Y-58521600D02*
X85039200Y-54051200D01*
X84429600Y-69138800D02*
X83616800Y-69138800D01*
D21*
X86969600Y-69138800D02*
X84429600Y-69138800D01*
X90170000Y-72339200D02*
X86969600Y-69138800D01*
D22*
X77520800Y-73761600D02*
X75895200Y-73761600D01*
X77571600Y-73710800D02*
X77520800Y-73761600D01*
X81889600Y-69697600D02*
X80924400Y-70662800D01*
X83058000Y-69697600D02*
X81889600Y-69697600D01*
X83616800Y-69138800D02*
X83058000Y-69697600D01*
D21*
X90170000Y-72390000D02*
X90170000Y-72339200D01*
D22*
X90170000Y-74930000D02*
X89763600Y-74930000D01*
X89763600Y-74930000D02*
X84785200Y-69951600D01*
X84785200Y-69951600D02*
X83972400Y-69951600D01*
X83972400Y-69951600D02*
X83413600Y-70510400D01*
X83413600Y-70510400D02*
X82143600Y-70510400D01*
X82143600Y-70510400D02*
X80924400Y-71729600D01*
X80924400Y-71729600D02*
X80924400Y-71780400D01*
X77622400Y-74726800D02*
X77571600Y-74777600D01*
X77571600Y-74777600D02*
X75387200Y-74777600D01*
D21*
X67310000Y-72390000D02*
X72593200Y-72390000D01*
X74472800Y-70510400D02*
X74472800Y-70053200D01*
X72593200Y-72390000D02*
X74472800Y-70510400D01*
D22*
X71120000Y-72390000D02*
X67310000Y-72390000D01*
X72999600Y-63703200D02*
X71882000Y-62585600D01*
X71882000Y-62585600D02*
X71882000Y-62128400D01*
D21*
X71882000Y-60502800D02*
X71882000Y-62128400D01*
D22*
X77927200Y-55676800D02*
X77876400Y-55676800D01*
X82854800Y-52578000D02*
X79756000Y-55676800D01*
X79756000Y-55676800D02*
X77927200Y-55676800D01*
D21*
X74536300Y-56388000D02*
X75247500Y-55676800D01*
X75247500Y-55676800D02*
X75793600Y-55676800D01*
D22*
X75793600Y-55676800D02*
X77927200Y-55676800D01*
D21*
X77597000Y-59436000D02*
X77470000Y-59309000D01*
X77470000Y-59309000D02*
X73075800Y-59309000D01*
X73075800Y-59309000D02*
X71882000Y-60502800D01*
X77978000Y-59436000D02*
X77597000Y-59436000D01*
D22*
X78130400Y-49377600D02*
X79451200Y-49377600D01*
X78028800Y-49479200D02*
X78130400Y-49377600D01*
D23*
G36*
X75311000Y-69456183D02*
X75048502Y-69193227D01*
X74675582Y-69038377D01*
X74271790Y-69038024D01*
X73898600Y-69192223D01*
X73612827Y-69477498D01*
X73457977Y-69850418D01*
X73457624Y-70254210D01*
X73488011Y-70327754D01*
X72251266Y-71564500D01*
X68710882Y-71564500D01*
X68554415Y-71330330D01*
X68239634Y-71120000D01*
X68554415Y-70909670D01*
X68879271Y-70423489D01*
X68953130Y-70052171D01*
X69187410Y-70052376D01*
X69560600Y-69898177D01*
X69846373Y-69612902D01*
X70001223Y-69239982D01*
X70001576Y-68836190D01*
X69847377Y-68463000D01*
X69811900Y-68427461D01*
X69811900Y-63754000D01*
X69798083Y-63684538D01*
X69798376Y-63349790D01*
X69644177Y-62976600D01*
X69358902Y-62690827D01*
X68985982Y-62535977D01*
X68932491Y-62535930D01*
X68993345Y-62230000D01*
X68879271Y-61656511D01*
X68554415Y-61170330D01*
X68239634Y-60960000D01*
X68554415Y-60749670D01*
X68879271Y-60263489D01*
X68993345Y-59690000D01*
X68879271Y-59116511D01*
X68554415Y-58630330D01*
X68239634Y-58420000D01*
X68554415Y-58209670D01*
X68879271Y-57723489D01*
X68993345Y-57150000D01*
X68879271Y-56576511D01*
X68554415Y-56090330D01*
X68239634Y-55880000D01*
X68554415Y-55669670D01*
X68826713Y-55262147D01*
X71958680Y-58394113D01*
X71958683Y-58394117D01*
X72226494Y-58573062D01*
X72226495Y-58573063D01*
X72542400Y-58635900D01*
X72625853Y-58635900D01*
X72492083Y-58725283D01*
X71298283Y-59919083D01*
X71119337Y-60186894D01*
X71056500Y-60502800D01*
X71056500Y-62128400D01*
X71094600Y-62319942D01*
X71094600Y-62585600D01*
X71154537Y-62886925D01*
X71325224Y-63142376D01*
X71984513Y-63801665D01*
X71984424Y-63904210D01*
X72138623Y-64277400D01*
X72423898Y-64563173D01*
X72796818Y-64718023D01*
X73200610Y-64718376D01*
X73215500Y-64712223D01*
X73215500Y-66294000D01*
X73283171Y-66634206D01*
X73475882Y-66922618D01*
X75311000Y-68757736D01*
X75311000Y-69456183D01*
X75311000Y-69456183D01*
G37*
X75311000Y-69456183D02*
X75048502Y-69193227D01*
X74675582Y-69038377D01*
X74271790Y-69038024D01*
X73898600Y-69192223D01*
X73612827Y-69477498D01*
X73457977Y-69850418D01*
X73457624Y-70254210D01*
X73488011Y-70327754D01*
X72251266Y-71564500D01*
X68710882Y-71564500D01*
X68554415Y-71330330D01*
X68239634Y-71120000D01*
X68554415Y-70909670D01*
X68879271Y-70423489D01*
X68953130Y-70052171D01*
X69187410Y-70052376D01*
X69560600Y-69898177D01*
X69846373Y-69612902D01*
X70001223Y-69239982D01*
X70001576Y-68836190D01*
X69847377Y-68463000D01*
X69811900Y-68427461D01*
X69811900Y-63754000D01*
X69798083Y-63684538D01*
X69798376Y-63349790D01*
X69644177Y-62976600D01*
X69358902Y-62690827D01*
X68985982Y-62535977D01*
X68932491Y-62535930D01*
X68993345Y-62230000D01*
X68879271Y-61656511D01*
X68554415Y-61170330D01*
X68239634Y-60960000D01*
X68554415Y-60749670D01*
X68879271Y-60263489D01*
X68993345Y-59690000D01*
X68879271Y-59116511D01*
X68554415Y-58630330D01*
X68239634Y-58420000D01*
X68554415Y-58209670D01*
X68879271Y-57723489D01*
X68993345Y-57150000D01*
X68879271Y-56576511D01*
X68554415Y-56090330D01*
X68239634Y-55880000D01*
X68554415Y-55669670D01*
X68826713Y-55262147D01*
X71958680Y-58394113D01*
X71958683Y-58394117D01*
X72226494Y-58573062D01*
X72226495Y-58573063D01*
X72542400Y-58635900D01*
X72625853Y-58635900D01*
X72492083Y-58725283D01*
X71298283Y-59919083D01*
X71119337Y-60186894D01*
X71056500Y-60502800D01*
X71056500Y-62128400D01*
X71094600Y-62319942D01*
X71094600Y-62585600D01*
X71154537Y-62886925D01*
X71325224Y-63142376D01*
X71984513Y-63801665D01*
X71984424Y-63904210D01*
X72138623Y-64277400D01*
X72423898Y-64563173D01*
X72796818Y-64718023D01*
X73200610Y-64718376D01*
X73215500Y-64712223D01*
X73215500Y-66294000D01*
X73283171Y-66634206D01*
X73475882Y-66922618D01*
X75311000Y-68757736D01*
X75311000Y-69456183D01*
G36*
X76347000Y-95631000D02*
X76327000Y-95631000D01*
X76327000Y-95651000D01*
X76073000Y-95651000D01*
X76073000Y-95631000D01*
X74994469Y-95631000D01*
X74865531Y-95631000D01*
X73787000Y-95631000D01*
X73787000Y-95651000D01*
X73533000Y-95651000D01*
X73533000Y-95631000D01*
X72325531Y-95631000D01*
X72205032Y-95863027D01*
X72405800Y-96291400D01*
X72208152Y-96291400D01*
X71805800Y-95889048D01*
X71805800Y-93091000D01*
X71802010Y-93071950D01*
X71805800Y-93052900D01*
X71805800Y-91716833D01*
X72113300Y-91589777D01*
X72399073Y-91304502D01*
X72553923Y-90931582D01*
X72554276Y-90527790D01*
X72400077Y-90154600D01*
X72114802Y-89868827D01*
X71741882Y-89713977D01*
X71338090Y-89713624D01*
X70964900Y-89867823D01*
X70679127Y-90153098D01*
X70524277Y-90526018D01*
X70524185Y-90630162D01*
X70461624Y-90692724D01*
X70332600Y-90885821D01*
X70332600Y-90242152D01*
X71287636Y-89287115D01*
X71511834Y-89380210D01*
X71945463Y-89380588D01*
X72346229Y-89214996D01*
X72653118Y-88908641D01*
X72819410Y-88508166D01*
X72819788Y-88074537D01*
X72654196Y-87673771D01*
X72580500Y-87599946D01*
X72580500Y-82080100D01*
X72580500Y-81787034D01*
X72834500Y-81533034D01*
X72834500Y-91718503D01*
X72600330Y-91874971D01*
X72275474Y-92361152D01*
X72161400Y-92934641D01*
X72161400Y-92993359D01*
X72275474Y-93566848D01*
X72600330Y-94053029D01*
X72871160Y-94233992D01*
X72453179Y-94615510D01*
X72205032Y-95144973D01*
X72325531Y-95377000D01*
X73533000Y-95377000D01*
X73533000Y-95357000D01*
X73787000Y-95357000D01*
X73787000Y-95377000D01*
X74865531Y-95377000D01*
X74994469Y-95377000D01*
X76073000Y-95377000D01*
X76073000Y-95357000D01*
X76327000Y-95357000D01*
X76327000Y-95377000D01*
X76347000Y-95377000D01*
X76347000Y-95631000D01*
X76347000Y-95631000D01*
G37*
X76347000Y-95631000D02*
X76327000Y-95631000D01*
X76327000Y-95651000D01*
X76073000Y-95651000D01*
X76073000Y-95631000D01*
X74994469Y-95631000D01*
X74865531Y-95631000D01*
X73787000Y-95631000D01*
X73787000Y-95651000D01*
X73533000Y-95651000D01*
X73533000Y-95631000D01*
X72325531Y-95631000D01*
X72205032Y-95863027D01*
X72405800Y-96291400D01*
X72208152Y-96291400D01*
X71805800Y-95889048D01*
X71805800Y-93091000D01*
X71802010Y-93071950D01*
X71805800Y-93052900D01*
X71805800Y-91716833D01*
X72113300Y-91589777D01*
X72399073Y-91304502D01*
X72553923Y-90931582D01*
X72554276Y-90527790D01*
X72400077Y-90154600D01*
X72114802Y-89868827D01*
X71741882Y-89713977D01*
X71338090Y-89713624D01*
X70964900Y-89867823D01*
X70679127Y-90153098D01*
X70524277Y-90526018D01*
X70524185Y-90630162D01*
X70461624Y-90692724D01*
X70332600Y-90885821D01*
X70332600Y-90242152D01*
X71287636Y-89287115D01*
X71511834Y-89380210D01*
X71945463Y-89380588D01*
X72346229Y-89214996D01*
X72653118Y-88908641D01*
X72819410Y-88508166D01*
X72819788Y-88074537D01*
X72654196Y-87673771D01*
X72580500Y-87599946D01*
X72580500Y-82080100D01*
X72580500Y-81787034D01*
X72834500Y-81533034D01*
X72834500Y-91718503D01*
X72600330Y-91874971D01*
X72275474Y-92361152D01*
X72161400Y-92934641D01*
X72161400Y-92993359D01*
X72275474Y-93566848D01*
X72600330Y-94053029D01*
X72871160Y-94233992D01*
X72453179Y-94615510D01*
X72205032Y-95144973D01*
X72325531Y-95377000D01*
X73533000Y-95377000D01*
X73533000Y-95357000D01*
X73787000Y-95357000D01*
X73787000Y-95377000D01*
X74865531Y-95377000D01*
X74994469Y-95377000D01*
X76073000Y-95377000D01*
X76073000Y-95357000D01*
X76327000Y-95357000D01*
X76327000Y-95377000D01*
X76347000Y-95377000D01*
X76347000Y-95631000D01*
G36*
X77749400Y-75809174D02*
X77657800Y-75847023D01*
X77372027Y-76132298D01*
X77217177Y-76505218D01*
X77216824Y-76909010D01*
X77371023Y-77282200D01*
X77393683Y-77304900D01*
X76936600Y-77304900D01*
X76620694Y-77367737D01*
X76352883Y-77546683D01*
X75006200Y-78893366D01*
X75006200Y-76327000D01*
X74943363Y-76011095D01*
X74943362Y-76011094D01*
X74764417Y-75743283D01*
X74764413Y-75743280D01*
X72694317Y-73673183D01*
X72426506Y-73494237D01*
X72110600Y-73431400D01*
X68566622Y-73431400D01*
X68710882Y-73215500D01*
X72593200Y-73215500D01*
X72909105Y-73152663D01*
X72909106Y-73152663D01*
X73176917Y-72973717D01*
X74930923Y-71219710D01*
X74930824Y-71333710D01*
X75085023Y-71706900D01*
X75370298Y-71992673D01*
X75743218Y-72147523D01*
X75984100Y-72147733D01*
X75984100Y-72338773D01*
X75898827Y-72423898D01*
X75764876Y-72746485D01*
X75694190Y-72746424D01*
X75321000Y-72900623D01*
X75035227Y-73185898D01*
X74880377Y-73558818D01*
X74880088Y-73888902D01*
X74813000Y-73916623D01*
X74527227Y-74201898D01*
X74372377Y-74574818D01*
X74372024Y-74978610D01*
X74526223Y-75351800D01*
X74811498Y-75637573D01*
X75184418Y-75792423D01*
X75588210Y-75792776D01*
X75961400Y-75638577D01*
X76035105Y-75565000D01*
X77024962Y-75565000D01*
X77046698Y-75586773D01*
X77419618Y-75741623D01*
X77749400Y-75741911D01*
X77749400Y-75809174D01*
X77749400Y-75809174D01*
G37*
X77749400Y-75809174D02*
X77657800Y-75847023D01*
X77372027Y-76132298D01*
X77217177Y-76505218D01*
X77216824Y-76909010D01*
X77371023Y-77282200D01*
X77393683Y-77304900D01*
X76936600Y-77304900D01*
X76620694Y-77367737D01*
X76352883Y-77546683D01*
X75006200Y-78893366D01*
X75006200Y-76327000D01*
X74943363Y-76011095D01*
X74943362Y-76011094D01*
X74764417Y-75743283D01*
X74764413Y-75743280D01*
X72694317Y-73673183D01*
X72426506Y-73494237D01*
X72110600Y-73431400D01*
X68566622Y-73431400D01*
X68710882Y-73215500D01*
X72593200Y-73215500D01*
X72909105Y-73152663D01*
X72909106Y-73152663D01*
X73176917Y-72973717D01*
X74930923Y-71219710D01*
X74930824Y-71333710D01*
X75085023Y-71706900D01*
X75370298Y-71992673D01*
X75743218Y-72147523D01*
X75984100Y-72147733D01*
X75984100Y-72338773D01*
X75898827Y-72423898D01*
X75764876Y-72746485D01*
X75694190Y-72746424D01*
X75321000Y-72900623D01*
X75035227Y-73185898D01*
X74880377Y-73558818D01*
X74880088Y-73888902D01*
X74813000Y-73916623D01*
X74527227Y-74201898D01*
X74372377Y-74574818D01*
X74372024Y-74978610D01*
X74526223Y-75351800D01*
X74811498Y-75637573D01*
X75184418Y-75792423D01*
X75588210Y-75792776D01*
X75961400Y-75638577D01*
X76035105Y-75565000D01*
X77024962Y-75565000D01*
X77046698Y-75586773D01*
X77419618Y-75741623D01*
X77749400Y-75741911D01*
X77749400Y-75809174D01*
G36*
X81834362Y-48082200D02*
X80873600Y-48082200D01*
X80533394Y-48149871D01*
X80519330Y-48159267D01*
X80469390Y-48159224D01*
X80096200Y-48313423D01*
X79931375Y-48477960D01*
X79653982Y-48362777D01*
X79250190Y-48362424D01*
X78877000Y-48516623D01*
X78803294Y-48590200D01*
X78534597Y-48590200D01*
X78231582Y-48464377D01*
X77827790Y-48464024D01*
X77454600Y-48618223D01*
X77168827Y-48903498D01*
X77013977Y-49276418D01*
X77013624Y-49680210D01*
X77167823Y-50053400D01*
X77453098Y-50339173D01*
X77826018Y-50494023D01*
X78229810Y-50494376D01*
X78603000Y-50340177D01*
X78778482Y-50165000D01*
X78803051Y-50165000D01*
X78875498Y-50237573D01*
X79248418Y-50392423D01*
X79652210Y-50392776D01*
X80025400Y-50238577D01*
X80190224Y-50074039D01*
X80467618Y-50189223D01*
X80871410Y-50189576D01*
X81244600Y-50035377D01*
X81420082Y-49860200D01*
X81584800Y-49860200D01*
X81584800Y-50533364D01*
X81102264Y-51015900D01*
X75920536Y-51015900D01*
X75741767Y-50837131D01*
X75741976Y-50598990D01*
X75587777Y-50225800D01*
X75302502Y-49940027D01*
X74929582Y-49785177D01*
X74525790Y-49784824D01*
X74152600Y-49939023D01*
X73866827Y-50224298D01*
X73711977Y-50597218D01*
X73711624Y-51001010D01*
X73865823Y-51374200D01*
X73904057Y-51412501D01*
X73905471Y-51419606D01*
X74098182Y-51708018D01*
X74923682Y-52533518D01*
X75212094Y-52726229D01*
X75552300Y-52793900D01*
X81470500Y-52793900D01*
X81538966Y-52780281D01*
X79429848Y-54889400D01*
X77927200Y-54889400D01*
X77876400Y-54889400D01*
X75985142Y-54889400D01*
X75793600Y-54851300D01*
X75247505Y-54851300D01*
X75247500Y-54851299D01*
X74931595Y-54914137D01*
X74663783Y-55093083D01*
X74663780Y-55093086D01*
X74384000Y-55372866D01*
X74335290Y-55372824D01*
X73962100Y-55527023D01*
X73676327Y-55812298D01*
X73532149Y-56159516D01*
X70675500Y-53302866D01*
X70675500Y-50749205D01*
X70675500Y-50749200D01*
X70675501Y-50749200D01*
X70612663Y-50433295D01*
X70433717Y-50165484D01*
X70433717Y-50165483D01*
X70433713Y-50165480D01*
X70116700Y-49848466D01*
X70116700Y-48580005D01*
X70116700Y-48580000D01*
X70116701Y-48580000D01*
X70053863Y-48264095D01*
X69874917Y-47996284D01*
X69874917Y-47996283D01*
X69874913Y-47996280D01*
X68972654Y-47094020D01*
X68993345Y-46990000D01*
X68879271Y-46416511D01*
X68554415Y-45930330D01*
X68501647Y-45895071D01*
X69152800Y-45626020D01*
X69753909Y-45025959D01*
X70079628Y-44241541D01*
X70080370Y-43392185D01*
X69756020Y-42607200D01*
X69155959Y-42006091D01*
X69044959Y-41960000D01*
X71471264Y-41960000D01*
X71905632Y-42394368D01*
X72127862Y-42542857D01*
X72167560Y-42550753D01*
X72167560Y-44695600D01*
X72214537Y-44937723D01*
X72318675Y-45096254D01*
X72217623Y-45245960D01*
X72167560Y-45495600D01*
X72167560Y-47995600D01*
X72214537Y-48237723D01*
X72354327Y-48450527D01*
X72565360Y-48592977D01*
X72815000Y-48643040D01*
X75015000Y-48643040D01*
X75257123Y-48596063D01*
X75469927Y-48456273D01*
X75612377Y-48245240D01*
X75662440Y-47995600D01*
X75662440Y-47421000D01*
X81817560Y-47421000D01*
X81817560Y-47995600D01*
X81834362Y-48082200D01*
X81834362Y-48082200D01*
G37*
X81834362Y-48082200D02*
X80873600Y-48082200D01*
X80533394Y-48149871D01*
X80519330Y-48159267D01*
X80469390Y-48159224D01*
X80096200Y-48313423D01*
X79931375Y-48477960D01*
X79653982Y-48362777D01*
X79250190Y-48362424D01*
X78877000Y-48516623D01*
X78803294Y-48590200D01*
X78534597Y-48590200D01*
X78231582Y-48464377D01*
X77827790Y-48464024D01*
X77454600Y-48618223D01*
X77168827Y-48903498D01*
X77013977Y-49276418D01*
X77013624Y-49680210D01*
X77167823Y-50053400D01*
X77453098Y-50339173D01*
X77826018Y-50494023D01*
X78229810Y-50494376D01*
X78603000Y-50340177D01*
X78778482Y-50165000D01*
X78803051Y-50165000D01*
X78875498Y-50237573D01*
X79248418Y-50392423D01*
X79652210Y-50392776D01*
X80025400Y-50238577D01*
X80190224Y-50074039D01*
X80467618Y-50189223D01*
X80871410Y-50189576D01*
X81244600Y-50035377D01*
X81420082Y-49860200D01*
X81584800Y-49860200D01*
X81584800Y-50533364D01*
X81102264Y-51015900D01*
X75920536Y-51015900D01*
X75741767Y-50837131D01*
X75741976Y-50598990D01*
X75587777Y-50225800D01*
X75302502Y-49940027D01*
X74929582Y-49785177D01*
X74525790Y-49784824D01*
X74152600Y-49939023D01*
X73866827Y-50224298D01*
X73711977Y-50597218D01*
X73711624Y-51001010D01*
X73865823Y-51374200D01*
X73904057Y-51412501D01*
X73905471Y-51419606D01*
X74098182Y-51708018D01*
X74923682Y-52533518D01*
X75212094Y-52726229D01*
X75552300Y-52793900D01*
X81470500Y-52793900D01*
X81538966Y-52780281D01*
X79429848Y-54889400D01*
X77927200Y-54889400D01*
X77876400Y-54889400D01*
X75985142Y-54889400D01*
X75793600Y-54851300D01*
X75247505Y-54851300D01*
X75247500Y-54851299D01*
X74931595Y-54914137D01*
X74663783Y-55093083D01*
X74663780Y-55093086D01*
X74384000Y-55372866D01*
X74335290Y-55372824D01*
X73962100Y-55527023D01*
X73676327Y-55812298D01*
X73532149Y-56159516D01*
X70675500Y-53302866D01*
X70675500Y-50749205D01*
X70675500Y-50749200D01*
X70675501Y-50749200D01*
X70612663Y-50433295D01*
X70433717Y-50165484D01*
X70433717Y-50165483D01*
X70433713Y-50165480D01*
X70116700Y-49848466D01*
X70116700Y-48580005D01*
X70116700Y-48580000D01*
X70116701Y-48580000D01*
X70053863Y-48264095D01*
X69874917Y-47996284D01*
X69874917Y-47996283D01*
X69874913Y-47996280D01*
X68972654Y-47094020D01*
X68993345Y-46990000D01*
X68879271Y-46416511D01*
X68554415Y-45930330D01*
X68501647Y-45895071D01*
X69152800Y-45626020D01*
X69753909Y-45025959D01*
X70079628Y-44241541D01*
X70080370Y-43392185D01*
X69756020Y-42607200D01*
X69155959Y-42006091D01*
X69044959Y-41960000D01*
X71471264Y-41960000D01*
X71905632Y-42394368D01*
X72127862Y-42542857D01*
X72167560Y-42550753D01*
X72167560Y-44695600D01*
X72214537Y-44937723D01*
X72318675Y-45096254D01*
X72217623Y-45245960D01*
X72167560Y-45495600D01*
X72167560Y-47995600D01*
X72214537Y-48237723D01*
X72354327Y-48450527D01*
X72565360Y-48592977D01*
X72815000Y-48643040D01*
X75015000Y-48643040D01*
X75257123Y-48596063D01*
X75469927Y-48456273D01*
X75612377Y-48245240D01*
X75662440Y-47995600D01*
X75662440Y-47421000D01*
X81817560Y-47421000D01*
X81817560Y-47995600D01*
X81834362Y-48082200D01*
G36*
X84259335Y-54013316D02*
X84251800Y-54051200D01*
X84251800Y-58064400D01*
X83743800Y-58064400D01*
X83442475Y-58124337D01*
X83187024Y-58295024D01*
X82399624Y-59082424D01*
X82228937Y-59337875D01*
X82169000Y-59639200D01*
X82169000Y-61649848D01*
X81614248Y-62204600D01*
X79552800Y-62204600D01*
X79251475Y-62264537D01*
X79006700Y-62428090D01*
X79006700Y-61454333D01*
X79539613Y-60921419D01*
X79539616Y-60921417D01*
X79539617Y-60921417D01*
X79646886Y-60760875D01*
X79718563Y-60653606D01*
X79718563Y-60653605D01*
X79781400Y-60337700D01*
X79781400Y-59969914D01*
X79815873Y-59935502D01*
X79970723Y-59562582D01*
X79971076Y-59158790D01*
X79816877Y-58785600D01*
X79667437Y-58635900D01*
X79946500Y-58635900D01*
X80262405Y-58573063D01*
X80262406Y-58573063D01*
X80530217Y-58394117D01*
X82332012Y-56592321D01*
X82448818Y-56640823D01*
X82852610Y-56641176D01*
X83225800Y-56486977D01*
X83511573Y-56201702D01*
X83666423Y-55828782D01*
X83666776Y-55424990D01*
X83512577Y-55051800D01*
X83368830Y-54907803D01*
X84251317Y-54025317D01*
X84259335Y-54013316D01*
X84259335Y-54013316D01*
G37*
X84259335Y-54013316D02*
X84251800Y-54051200D01*
X84251800Y-58064400D01*
X83743800Y-58064400D01*
X83442475Y-58124337D01*
X83187024Y-58295024D01*
X82399624Y-59082424D01*
X82228937Y-59337875D01*
X82169000Y-59639200D01*
X82169000Y-61649848D01*
X81614248Y-62204600D01*
X79552800Y-62204600D01*
X79251475Y-62264537D01*
X79006700Y-62428090D01*
X79006700Y-61454333D01*
X79539613Y-60921419D01*
X79539616Y-60921417D01*
X79539617Y-60921417D01*
X79646886Y-60760875D01*
X79718563Y-60653606D01*
X79718563Y-60653605D01*
X79781400Y-60337700D01*
X79781400Y-59969914D01*
X79815873Y-59935502D01*
X79970723Y-59562582D01*
X79971076Y-59158790D01*
X79816877Y-58785600D01*
X79667437Y-58635900D01*
X79946500Y-58635900D01*
X80262405Y-58573063D01*
X80262406Y-58573063D01*
X80530217Y-58394117D01*
X82332012Y-56592321D01*
X82448818Y-56640823D01*
X82852610Y-56641176D01*
X83225800Y-56486977D01*
X83511573Y-56201702D01*
X83666423Y-55828782D01*
X83666776Y-55424990D01*
X83512577Y-55051800D01*
X83368830Y-54907803D01*
X84251317Y-54025317D01*
X84259335Y-54013316D01*
G36*
X85369400Y-88479364D02*
X85328600Y-88496223D01*
X85042827Y-88781498D01*
X84887977Y-89154418D01*
X84887920Y-89218684D01*
X83947000Y-88277764D01*
X83947000Y-87185500D01*
X83879329Y-86845295D01*
X83879329Y-86845294D01*
X83686618Y-86556882D01*
X83449645Y-86319909D01*
X83449688Y-86271137D01*
X83284096Y-85870371D01*
X82977741Y-85563482D01*
X82577266Y-85397190D01*
X82143637Y-85396812D01*
X81742871Y-85562404D01*
X81435982Y-85868759D01*
X81269690Y-86269234D01*
X81269312Y-86702863D01*
X81434904Y-87103629D01*
X81741259Y-87410518D01*
X82141734Y-87576810D01*
X82169000Y-87576833D01*
X82169000Y-88646000D01*
X82236671Y-88986206D01*
X82429382Y-89274618D01*
X84556600Y-91401836D01*
X84556600Y-91452960D01*
X84238394Y-91452960D01*
X80632300Y-87846866D01*
X80632300Y-86651134D01*
X82371717Y-84911717D01*
X82550663Y-84643906D01*
X82550663Y-84643905D01*
X82613500Y-84328000D01*
X82613501Y-84328000D01*
X82613500Y-84327994D01*
X82613500Y-80721200D01*
X82613500Y-80568805D01*
X82613500Y-80568800D01*
X82613501Y-80568800D01*
X82550663Y-80252895D01*
X82371717Y-79985084D01*
X82371717Y-79985083D01*
X82371713Y-79985080D01*
X80784700Y-78398066D01*
X80784700Y-77865471D01*
X80926424Y-78077576D01*
X83134200Y-80285352D01*
X83134200Y-84785200D01*
X83160705Y-84918451D01*
X83160424Y-85240210D01*
X83314623Y-85613400D01*
X83599898Y-85899173D01*
X83972818Y-86054023D01*
X84376610Y-86054376D01*
X84749800Y-85900177D01*
X84818992Y-85831105D01*
X84988818Y-85901623D01*
X85369400Y-85901955D01*
X85369400Y-88479364D01*
X85369400Y-88479364D01*
G37*
X85369400Y-88479364D02*
X85328600Y-88496223D01*
X85042827Y-88781498D01*
X84887977Y-89154418D01*
X84887920Y-89218684D01*
X83947000Y-88277764D01*
X83947000Y-87185500D01*
X83879329Y-86845295D01*
X83879329Y-86845294D01*
X83686618Y-86556882D01*
X83449645Y-86319909D01*
X83449688Y-86271137D01*
X83284096Y-85870371D01*
X82977741Y-85563482D01*
X82577266Y-85397190D01*
X82143637Y-85396812D01*
X81742871Y-85562404D01*
X81435982Y-85868759D01*
X81269690Y-86269234D01*
X81269312Y-86702863D01*
X81434904Y-87103629D01*
X81741259Y-87410518D01*
X82141734Y-87576810D01*
X82169000Y-87576833D01*
X82169000Y-88646000D01*
X82236671Y-88986206D01*
X82429382Y-89274618D01*
X84556600Y-91401836D01*
X84556600Y-91452960D01*
X84238394Y-91452960D01*
X80632300Y-87846866D01*
X80632300Y-86651134D01*
X82371717Y-84911717D01*
X82550663Y-84643906D01*
X82550663Y-84643905D01*
X82613500Y-84328000D01*
X82613501Y-84328000D01*
X82613500Y-84327994D01*
X82613500Y-80721200D01*
X82613500Y-80568805D01*
X82613500Y-80568800D01*
X82613501Y-80568800D01*
X82550663Y-80252895D01*
X82371717Y-79985084D01*
X82371717Y-79985083D01*
X82371713Y-79985080D01*
X80784700Y-78398066D01*
X80784700Y-77865471D01*
X80926424Y-78077576D01*
X83134200Y-80285352D01*
X83134200Y-84785200D01*
X83160705Y-84918451D01*
X83160424Y-85240210D01*
X83314623Y-85613400D01*
X83599898Y-85899173D01*
X83972818Y-86054023D01*
X84376610Y-86054376D01*
X84749800Y-85900177D01*
X84818992Y-85831105D01*
X84988818Y-85901623D01*
X85369400Y-85901955D01*
X85369400Y-88479364D01*
G36*
X89240365Y-63500000D02*
X88925585Y-63710330D01*
X88600729Y-64196511D01*
X88486655Y-64770000D01*
X88600729Y-65343489D01*
X88635190Y-65395063D01*
X88493600Y-65366900D01*
X87308028Y-65366900D01*
X87324023Y-65328382D01*
X87324217Y-65105833D01*
X87350600Y-64973200D01*
X87350600Y-56829625D01*
X87442200Y-56791777D01*
X87727973Y-56506502D01*
X87882823Y-56133582D01*
X87883176Y-55729790D01*
X87745835Y-55397400D01*
X88743659Y-55397400D01*
X88925585Y-55669670D01*
X89240365Y-55880000D01*
X88925585Y-56090330D01*
X88600729Y-56576511D01*
X88486655Y-57150000D01*
X88600729Y-57723489D01*
X88925585Y-58209670D01*
X89240365Y-58420000D01*
X88925585Y-58630330D01*
X88600729Y-59116511D01*
X88486655Y-59690000D01*
X88600729Y-60263489D01*
X88925585Y-60749670D01*
X89240365Y-60960000D01*
X88925585Y-61170330D01*
X88600729Y-61656511D01*
X88486655Y-62230000D01*
X88600729Y-62803489D01*
X88925585Y-63289670D01*
X89240365Y-63500000D01*
X89240365Y-63500000D01*
G37*
X89240365Y-63500000D02*
X88925585Y-63710330D01*
X88600729Y-64196511D01*
X88486655Y-64770000D01*
X88600729Y-65343489D01*
X88635190Y-65395063D01*
X88493600Y-65366900D01*
X87308028Y-65366900D01*
X87324023Y-65328382D01*
X87324217Y-65105833D01*
X87350600Y-64973200D01*
X87350600Y-56829625D01*
X87442200Y-56791777D01*
X87727973Y-56506502D01*
X87882823Y-56133582D01*
X87883176Y-55729790D01*
X87745835Y-55397400D01*
X88743659Y-55397400D01*
X88925585Y-55669670D01*
X89240365Y-55880000D01*
X88925585Y-56090330D01*
X88600729Y-56576511D01*
X88486655Y-57150000D01*
X88600729Y-57723489D01*
X88925585Y-58209670D01*
X89240365Y-58420000D01*
X88925585Y-58630330D01*
X88600729Y-59116511D01*
X88486655Y-59690000D01*
X88600729Y-60263489D01*
X88925585Y-60749670D01*
X89240365Y-60960000D01*
X88925585Y-61170330D01*
X88600729Y-61656511D01*
X88486655Y-62230000D01*
X88600729Y-62803489D01*
X88925585Y-63289670D01*
X89240365Y-63500000D01*
G36*
X90317000Y-49657000D02*
X90297000Y-49657000D01*
X90297000Y-49677000D01*
X90043000Y-49677000D01*
X90043000Y-49657000D01*
X88683783Y-49657000D01*
X88562642Y-49889026D01*
X88565291Y-49904791D01*
X88819268Y-50432036D01*
X89235069Y-50803539D01*
X88925585Y-51010330D01*
X88743659Y-51282600D01*
X87999538Y-51282600D01*
X88136823Y-50951982D01*
X88137176Y-50548190D01*
X87982977Y-50175000D01*
X87697702Y-49889227D01*
X87680800Y-49882208D01*
X87680800Y-49212436D01*
X88892732Y-48000503D01*
X88925585Y-48049670D01*
X89235069Y-48256460D01*
X88819268Y-48627964D01*
X88565291Y-49155209D01*
X88562642Y-49170974D01*
X88683783Y-49403000D01*
X90043000Y-49403000D01*
X90043000Y-49383000D01*
X90297000Y-49383000D01*
X90297000Y-49403000D01*
X90317000Y-49403000D01*
X90317000Y-49657000D01*
X90317000Y-49657000D01*
G37*
X90317000Y-49657000D02*
X90297000Y-49657000D01*
X90297000Y-49677000D01*
X90043000Y-49677000D01*
X90043000Y-49657000D01*
X88683783Y-49657000D01*
X88562642Y-49889026D01*
X88565291Y-49904791D01*
X88819268Y-50432036D01*
X89235069Y-50803539D01*
X88925585Y-51010330D01*
X88743659Y-51282600D01*
X87999538Y-51282600D01*
X88136823Y-50951982D01*
X88137176Y-50548190D01*
X87982977Y-50175000D01*
X87697702Y-49889227D01*
X87680800Y-49882208D01*
X87680800Y-49212436D01*
X88892732Y-48000503D01*
X88925585Y-48049670D01*
X89235069Y-48256460D01*
X88819268Y-48627964D01*
X88565291Y-49155209D01*
X88562642Y-49170974D01*
X88683783Y-49403000D01*
X90043000Y-49403000D01*
X90043000Y-49383000D01*
X90297000Y-49383000D01*
X90297000Y-49403000D01*
X90317000Y-49403000D01*
X90317000Y-49657000D01*
M02*
